<svg xmlns="http://www.w3.org/2000/svg" viewBox="0 0 204.36 8.62"><path d="M.68.31l3 6.55m2-6.55l3 6.55m2-6.55l3 6.55m2-6.55l3 6.55m2-6.06l3 6.54m2-6.54l3 6.54m2-6.54l3 6.54m2-6.3l3 6.55m2-6.55l3 6.55m2-7.04l3 6.55m2-6.55l3 6.55m2-6.06l3 6.55m2-6.55l3 6.55m2-6.55l3 7.27m2-7.27l3 7.27m2-7.27l3 7.27m2-7.27l3 7.27m2-7.27l3 7.27m2-7.27l3 6.55m2-6.55l3 6.55m2-6.55l3 6.55m2-6.55l3 6.55m2-5.82l3 6.54m2-6.54l3 6.54m2-7.27l3 6.06m2-6.06l3 6.06m2-6.55l3 6.55m2-6.06l3 6.55m2-5.82l3 6.54m2-7.27l3 6.55m2-7.04l3 6.55m2-6.55l3 6.55m2-6.55l3 6.55m2-6.55l3 6.55m2-6.55l3 6.55m2-6.79l3 6.55m2-6.55l3 6.55m2-6.55l3 6.55m2-6.55l3 6.55m2-6.06l3 6.54m2-6.54l3 6.54" fill="#fff" stroke="#231f20" stroke-miterlimit="10"/><path d="M.68.31l3 6.55m2-6.55l3 6.55m2-6.55l3 6.55m2-6.55l3 6.55m2-6.06l3 6.54m2-6.54l3 6.54m2-6.54l3 6.54m2-6.3l3 6.55m2-6.55l3 6.55m2-7.04l3 6.55m2-6.55l3 6.55m2-6.06l3 6.55m2-6.55l3 6.55m2-6.55l3 7.27m2-7.27l3 7.27m2-7.27l3 7.27m2-7.27l3 7.27m2-7.27l3 7.27m2-7.27l3 6.55m2-6.55l3 6.55m2-6.55l3 6.55m2-6.55l3 6.55m2-5.82l3 6.54m2-6.54l3 6.54m2-7.27l3 6.06m2-6.06l3 6.06m2-6.55l3 6.55m2-6.06l3 6.55m2-5.82l3 6.54m2-7.27l3 6.55m2-7.04l3 6.55m2-6.55l3 6.55m2-6.55l3 6.55m2-6.55l3 6.55m2-6.55l3 6.55m2-6.79l3 6.55m2-6.55l3 6.55m2-6.55l3 6.55m2-6.55l3 6.55m2-6.06l3 6.54m2-6.54l3 6.54" fill="none" stroke="#323339" stroke-width="1.5" stroke-miterlimit="10"/></svg>