<svg xmlns="http://www.w3.org/2000/svg" viewBox="0 0 441 85"><defs><style>.a{fill:#faf7ef;}.b{fill:#e48d37;stroke-linejoin:round;}.b,.c{stroke:#323339;stroke-width:2px;}.c{fill:none;stroke-miterlimit:10;}.d{fill:#323339;}</style></defs><title>nametrans</title><rect class="a" x="13" y="2" width="426" height="71.67"/><path class="b" d="M431.17,74L431,81.25A2.75,2.75,0,0,1,428.25,84H3.75A2.75,2.75,0,0,1,1,81.25H1V11.75A2.75,2.75,0,0,1,3.75,9h7.92L11.9,70.44a3.74,3.74,0,0,0,3.75,3.73h0L429.5,74"/><path class="c" d="M211,73.67V85"/><path class="d" d="M436.76,2A2.25,2.25,0,0,1,439,4.24v68a0.75,0.75,0,0,1-.75.75l-423.63.25a1.7,1.7,0,0,1-1.7-1.7h0L13,2.75A0.75,0.75,0,0,1,13.75,2h423m0-2h-423A2.75,2.75,0,0,0,11,2.75L10.92,71.54a3.7,3.7,0,0,0,3.69,3.71h0L438.25,75A2.75,2.75,0,0,0,441,72.25v-68A4.24,4.24,0,0,0,436.77,0h0Z"/><path class="c" d="M221,0V75"/><path class="d" d="M66.64,47.71a15.77,15.77,0,0,1-8,2.29,11.1,11.1,0,0,1-8.37-3.28,12.13,12.13,0,0,1-3.16-8.79q0-5.79,3.21-9a11.48,11.48,0,0,1,8.46-3.19,18.11,18.11,0,0,1,7.85,1.88v6.19H63.95V29.36a12.49,12.49,0,0,0-5.38-1.12,8,8,0,0,0-6.35,2.49,10.26,10.26,0,0,0-2.18,7,10.46,10.46,0,0,0,2.33,7.2,8.25,8.25,0,0,0,6.51,2.63,16.08,16.08,0,0,0,7.76-2.33v2.48Zm9-.18V50H67.54V47.53H70l8.26-21.76h3l8.08,21.76h2.42V50H83.69V47.53h2.78L84.32,41.7H74.81L72.7,47.53h2.92Zm4-18.62H79.47L75.71,39.23h7.72ZM91.77,47.53h2.69V28.24H91.77V25.77h8.08v2.47h-2.7V47.53h2.69V50H91.77V47.53Zm16.15,0h2.69V28.24h-5.38V33h-2.69V25.77h18.85V33H118.7V28.24h-5.38V47.53H116V50h-8.08V47.53Zm16.16,0h2.69V28.24h-2.69V25.77h8.08v2.47h-2.69V47.53h10.77V42.82h2.69V50H124.08V47.53Zm21.53,0h2.69V28.24h-2.69V25.77h8.08v2.47H151V47.53h2.69V50h-8.08V47.53Zm29.62-19.29h-2.69V25.77h8.08v2.47h-2.69V50h-2.69L161.95,30.66h-0.18V47.53h2.69V50h-8.08V47.53h2.69V28.24h-2.69V25.77h5.38L175,45.06h0.18V28.24h0.05Zm76.15,19.29h2.69V28.24h-5.38V33H246V25.77h18.85V33h-2.69V28.24h-5.38V47.53h2.69V50h-8.08V47.53h0Zm21.54-8.3v8.3h2.69V50h-8.08V47.53h2.69V28.24h-2.69V25.77H278.3q4.4,0,6.35,1.62a5.93,5.93,0,0,1,2,4.85q0,5.56-6.42,6.64V39a6.27,6.27,0,0,1,1.48,1.12,12.42,12.42,0,0,1,1.71,2.42l2.87,5h2.83V50h-4.76q-0.58-1.08-1.1-2l-1-1.77-1.53-2.69a24.06,24.06,0,0,0-1.41-2.33,6.09,6.09,0,0,0-1.19-1.3,2.8,2.8,0,0,0-1.21-.56,8.59,8.59,0,0,0-1.48-.11h-2.52Zm4.94-2.47a7.63,7.63,0,0,0,4.33-1,3.74,3.74,0,0,0,1.5-3.32,3.72,3.72,0,0,0-1.32-3.19,7.28,7.28,0,0,0-4.29-1h-5.16v8.53h4.94v0Zm19.29,4a6.85,6.85,0,0,0,1.79,5.07,6.55,6.55,0,0,0,4.85,1.79,6.66,6.66,0,0,0,5-1.86,7,7,0,0,0,1.82-5.09V28.24h-2.69V25.77H316v2.47h-2.69V40.62A8.82,8.82,0,0,1,303.79,50a9.43,9.43,0,0,1-6.8-2.42,8.81,8.81,0,0,1-2.54-6.69V28.24h-2.69V25.77h8.08v2.47h-2.69V40.8h0ZM325.78,50a18.28,18.28,0,0,1-7.09-1.48v-5.7h2.69v4a15.69,15.69,0,0,0,4.85.67,7.6,7.6,0,0,0,4.38-1.08,3.11,3.11,0,0,0,.16-5.34,9.55,9.55,0,0,0-1.84-.94q-1.12-.45-2.69-0.94-1.35-.45-2.71-1a13.24,13.24,0,0,1-2.51-1.3A6,6,0,0,1,319.16,35a5.21,5.21,0,0,1-.7-2.76,5.61,5.61,0,0,1,2.4-4.71,10.43,10.43,0,0,1,6.39-1.79,14.56,14.56,0,0,1,6.69,1.53v5.65h-2.69V29a11.32,11.32,0,0,0-4.35-.72,6.59,6.59,0,0,0-4.11,1.1A3.25,3.25,0,0,0,321.38,32a3.19,3.19,0,0,0,.38,1.64,3.66,3.66,0,0,0,1.14,1.17,9.2,9.2,0,0,0,1.88.94q1.12,0.43,2.65.92,1.35,0.45,2.71,1a12.81,12.81,0,0,1,2.47,1.28,5.94,5.94,0,0,1,1.77,1.84,5,5,0,0,1,.67,2.67,5.6,5.6,0,0,1-2.47,4.87,11.74,11.74,0,0,1-6.8,1.67h0Zm18.85,0a18.28,18.28,0,0,1-7.09-1.48v-5.7h2.69v4a15.67,15.67,0,0,0,4.85.67,7.6,7.6,0,0,0,4.38-1.08,3.11,3.11,0,0,0,.16-5.34,9.57,9.57,0,0,0-1.84-.94q-1.12-.45-2.69-0.94-1.35-.45-2.71-1a13.23,13.23,0,0,1-2.51-1.3A6,6,0,0,1,338,35a5.21,5.21,0,0,1-.7-2.76,5.61,5.61,0,0,1,2.4-4.71,10.43,10.43,0,0,1,6.39-1.79,14.57,14.57,0,0,1,6.69,1.53v5.65H350.1V29a11.32,11.32,0,0,0-4.35-.72,6.59,6.59,0,0,0-4.11,1.1A3.25,3.25,0,0,0,340.23,32a3.2,3.2,0,0,0,.38,1.64,3.66,3.66,0,0,0,1.14,1.17,9.17,9.17,0,0,0,1.88.94q1.12,0.43,2.65.92,1.35,0.45,2.71,1a12.85,12.85,0,0,1,2.47,1.28,5.94,5.94,0,0,1,1.77,1.84,5,5,0,0,1,.67,2.67,5.6,5.6,0,0,1-2.47,4.87,11.74,11.74,0,0,1-6.8,1.67h0Zm11.75-21.76V25.77h18V33h-2.69V28.24h-9.87v7.85h4.49V33.4H369v8.08h-2.69V38.56h-4.49v9h9.87V42.82h2.69V50h-18V47.53h2.69V28.24h-2.69Zm21.54,19.29h2.69V28.24h-2.69V25.77H386v2.47h-2.69V47.53h10.77V42.82h2.69V50H377.92V47.53h0Zm21.54,0h2.69V28.24h-2.69V25.77h8.08v2.47h-2.69V47.53h10.77V42.82h2.69V50H399.46V47.53h0Z"/></svg>