<svg xmlns="http://www.w3.org/2000/svg" viewBox="0 0 441 85"><defs><style>.b{stroke:#323339;stroke-width:2px;fill:none;stroke-miterlimit:10}.c{fill:#323339}</style></defs><path d="M431.17 74l-.17 7.25a2.75 2.75 0 0 1-2.75 2.75H3.75A2.75 2.75 0 0 1 1 81.25v-69.5A2.75 2.75 0 0 1 3.75 9h7.92l.23 61.44a3.74 3.74 0 0 0 3.75 3.73L429.5 74" stroke-linejoin="round" fill="#e48d37" stroke="#323339" stroke-width="2"/><path class="b" d="M211 73.67V85"/><path class="c" d="M436.76 2A2.25 2.25 0 0 1 439 4.24v68a.75.75 0 0 1-.75.75l-423.63.25a1.7 1.7 0 0 1-1.7-1.71L13 2.75a.75.75 0 0 1 .75-.75h423m0-2h-423A2.75 2.75 0 0 0 11 2.75l-.08 68.79a3.7 3.7 0 0 0 3.7 3.71L438.25 75a2.75 2.75 0 0 0 2.75-2.75v-68A4.24 4.24 0 0 0 436.76 0z"/><path class="b" d="M221 0v75"/><path class="c" d="M66.64 47.71a15.77 15.77 0 0 1-8 2.29 11.1 11.1 0 0 1-8.37-3.28 12.13 12.13 0 0 1-3.16-8.79q0-5.79 3.21-9a11.48 11.48 0 0 1 8.46-3.19 18.11 18.11 0 0 1 7.85 1.88v6.19h-2.68v-4.45a12.49 12.49 0 0 0-5.38-1.12 8 8 0 0 0-6.35 2.49 10.26 10.26 0 0 0-2.18 7 10.46 10.46 0 0 0 2.33 7.2 8.25 8.25 0 0 0 6.51 2.63 16.08 16.08 0 0 0 7.76-2.33v2.51zm8.98-.18V50h-8.08v-2.47H70l8.26-21.76h3l8.08 21.76h2.42V50h-8.07v-2.47h2.78l-2.15-5.83h-9.51l-2.11 5.83h2.92zm4-18.62h-.15l-3.76 10.32h7.72zm12.15 18.62h2.69V28.24h-2.69v-2.47h8.08v2.47h-2.7v19.29h2.69V50h-8.07v-2.47zm16.15 0h2.69V28.24h-5.38v4.71h-2.69v-7.18h18.85v7.18h-2.69v-4.71h-5.38v19.29H116V50h-8.08v-2.47zm16.16 0h2.69V28.24h-2.69v-2.47h8.08v2.47h-2.69v19.29h10.77v-4.71h2.69V50h-18.85v-2.47zm21.53 0h2.69V28.24h-2.69v-2.47h8.08v2.47H151v19.29h2.69V50h-8.08v-2.47zm29.62-19.29h-2.69v-2.47h8.08v2.47h-2.69V50h-2.69l-13.29-19.34h-.18v16.87h2.69V50h-8.08v-2.47h2.69V28.24h-2.69v-2.47h5.38L175 45.06h.18V28.24zm76.15 19.29h2.69V28.24h-5.38v4.71H246v-7.18h18.85v7.18h-2.69v-4.71h-5.38v19.29h2.69V50h-8.08v-2.47zm21.54-8.3v8.3h2.69V50h-8.08v-2.47h2.69V28.24h-2.69v-2.47h10.77q4.4 0 6.35 1.62a5.93 5.93 0 0 1 2 4.85q0 5.56-6.42 6.64V39a6.27 6.27 0 0 1 1.48 1.12 12.42 12.42 0 0 1 1.71 2.42l2.87 5h2.83V50h-4.76q-.58-1.08-1.1-2l-1-1.77-1.53-2.69a24.06 24.06 0 0 0-1.41-2.33 6.09 6.09 0 0 0-1.19-1.3 2.8 2.8 0 0 0-1.21-.56 8.59 8.59 0 0 0-1.48-.11h-2.47zm4.94-2.47a7.63 7.63 0 0 0 4.33-1 3.74 3.74 0 0 0 1.5-3.32 3.72 3.72 0 0 0-1.32-3.19 7.28 7.28 0 0 0-4.29-1h-5.16v8.53h4.94zm19.29 4.04a6.85 6.85 0 0 0 1.79 5.07 6.55 6.55 0 0 0 4.85 1.79 6.66 6.66 0 0 0 5-1.86 7 7 0 0 0 1.82-5.09V28.24h-2.69v-2.47H316v2.47h-2.69v12.38a8.82 8.82 0 0 1-9.52 9.38 9.43 9.43 0 0 1-6.8-2.42 8.81 8.81 0 0 1-2.54-6.69V28.24h-2.69v-2.47h8.08v2.47h-2.69V40.8zm28.63 9.2a18.28 18.28 0 0 1-7.09-1.48v-5.7h2.69v4a15.69 15.69 0 0 0 4.85.67 7.6 7.6 0 0 0 4.38-1.08 3.26 3.26 0 0 0 1.21-4.22 3.25 3.25 0 0 0-1.05-1.12 9.55 9.55 0 0 0-1.84-.94q-1.12-.45-2.69-.94-1.35-.45-2.71-1a13.24 13.24 0 0 1-2.51-1.3 6 6 0 0 1-1.86-1.89 5.21 5.21 0 0 1-.7-2.76 5.61 5.61 0 0 1 2.4-4.71 10.43 10.43 0 0 1 6.39-1.79 14.56 14.56 0 0 1 6.69 1.53v5.65h-2.69V29a11.32 11.32 0 0 0-4.35-.72 6.59 6.59 0 0 0-4.11 1.1 3.25 3.25 0 0 0-1.41 2.62 3.19 3.19 0 0 0 .38 1.64 3.66 3.66 0 0 0 1.14 1.17 9.2 9.2 0 0 0 1.88.94q1.12.43 2.65.92 1.35.45 2.71 1a12.81 12.81 0 0 1 2.47 1.28 5.94 5.94 0 0 1 1.77 1.84 5 5 0 0 1 .67 2.67 5.6 5.6 0 0 1-2.47 4.87 11.74 11.74 0 0 1-6.8 1.67zm18.85 0a18.28 18.28 0 0 1-7.09-1.48v-5.7h2.69v4a15.67 15.67 0 0 0 4.85.67 7.6 7.6 0 0 0 4.38-1.08 3.26 3.26 0 0 0 1.21-4.22 3.24 3.24 0 0 0-1.05-1.12 9.57 9.57 0 0 0-1.84-.94q-1.12-.45-2.69-.94-1.35-.45-2.71-1a13.23 13.23 0 0 1-2.51-1.3A6 6 0 0 1 338 35a5.21 5.21 0 0 1-.7-2.76 5.61 5.61 0 0 1 2.4-4.71 10.43 10.43 0 0 1 6.39-1.79 14.57 14.57 0 0 1 6.69 1.53v5.65h-2.68V29a11.32 11.32 0 0 0-4.35-.72 6.59 6.59 0 0 0-4.11 1.1 3.25 3.25 0 0 0-1.41 2.62 3.2 3.2 0 0 0 .38 1.64 3.66 3.66 0 0 0 1.14 1.17 9.17 9.17 0 0 0 1.88.94q1.12.43 2.65.92 1.35.45 2.71 1a12.85 12.85 0 0 1 2.47 1.28 5.94 5.94 0 0 1 1.77 1.84 5 5 0 0 1 .67 2.67 5.6 5.6 0 0 1-2.47 4.87 11.74 11.74 0 0 1-6.8 1.67zm11.75-21.76v-2.47h17.95v7.18h-2.69v-4.71h-9.87v7.85h4.49V33.4h2.69v8.08h-2.69v-2.92h-4.49v9h9.87v-4.74h2.69V50h-17.95v-2.47h2.69V28.24h-2.69zm21.54 19.29h2.69V28.24h-2.69v-2.47H386v2.47h-2.69v19.29h10.77v-4.71h2.69V50h-18.85v-2.47zm21.54 0h2.69V28.24h-2.69v-2.47h8.08v2.47h-2.69v19.29h10.77v-4.71h2.69V50h-18.85v-2.47z"/></svg>