<svg xmlns="http://www.w3.org/2000/svg" viewBox="0 0 147.43 174.01"><defs><style>.a{fill:#5f9e6a}.b{fill:none;stroke:#323339;stroke-miterlimit:10}</style></defs><path class="a" d="M74.14 123.26L73 124.95a2.27 2.27 0 0 0-.51-1.3m.05-.01a8.4 8.4 0 0 0-.66-.88m-7.33-51.65c3.5 2.83 5.83 1.33 6.67.83s5.67-.5 7 .17S84 75.45 84 75.45l1 2.5a3.77 3.77 0 0 0 2.83 2.5c2.17.33 2.83-1 2.83-1l.34 3.5a70.66 70.66 0 0 1-2.69 15.85"/><path class="a" d="M60.22 71.78s-10.33-.17-11.67 6l-1.33 6.17s.67.83.17 3.33-1.17 5.33-.5 5.67.5 3 .5 3 3.67 5 4 5.67 2.17 3.67 2.17 3.67 9 10.83 16.33 15.33a26.85 26.85 0 0 1 2 2.15m13.4-16.22l.21-.43m-11.36 17.14c2.22-3.42 7.2-11 8.74-12.81a20.69 20.69 0 0 0 2.41-3.89m3.02-7.76a49.19 49.19 0 0 1-2.8 7.32M64.55 71.11l-1.83-.83s-1.33-1.33-1.33 0a1.43 1.43 0 0 1-1.17 1.5m-36-5.25l-.22.08m20.55 5.25a3.61 3.61 0 0 1-1.33.26c-3.5 0-.17-1.83-.17-1.83s-4.63-11.07-18.83-3.75m20.33 5.32c2.47-1 3.33-4.41 3.33-4.41m8.67 4.5s-1.67-6.5-8.67-4.5m1.73-30.58a18 18 0 0 0 1.94 1.91c3.33 2.83 5 6.17 4.5 5.5m-29.17 56a12.51 12.51 0 0 1-1.6-1.47m1.6 1.47c.8.56 2.88-.89 4.82-2.54m-7.48-31.21C28 60.33 33.2 52 36.38 47.28a82.69 82.69 0 0 1 11.33-13.5m.91 1.81a12.79 12.79 0 0 0 1 1.28m-.4-.09l-.6-1.19m-.79-1.47a7.78 7.78 0 0 0 .79 1.48M25.28 98.81c-1.77-1.85-3.9-4.53-3.9-4.53m27.84-57.5s-2.33 2.83-2.33 4.67.11 4.83.11 4.83l.5 2.17.17 6.17s4.17-3.67 5.33-5.5 3-4.83 3-4.83m-8.15-10.25l-.13-.26m.13.26l.77 1.55M19.38 74.45s2.05-3.39 4.83-7.92m13.41 26.23l-1.9 1.18m-4.02 3.8c2.09-1.78 4-3.79 4-3.79"/><path class="a" d="M37.62 92.76a60 60 0 0 1 5.26-3c1-2.83 4.33-4.67 4.33-4.67M19.38 74.45a76 76 0 0 0-1.67 7.83c0 1.33 3.67 12 3.67 12m26.45-60.16a3 3 0 0 1-.11-.34m-3.17 38.08v.09m0-.09V59.61c0-1-.17-5.67-10.17-9m.84-1.5l5.67 3 3.67 3.67.17-7.5s-.33-4 0-4.5-2.83-3.67-2.83-3.67m5.98 27.34l1-9.67 2.17-2.67c.67-.84 7.33-6 7.17-7.17m0 .01C58 46.78 56 44.28 56 44.28"/><path class="a" d="M60.22 71.78s2-11.67 2.17-13-4.17-10.83-4.17-10.83m12.16 6.83c-.06-.13-.16-.13-.29-.06"/><path class="a" d="M70.09 54.72c-1.08.57-4.37 6.89-4.37 6.89l-1.17 9.5m23.14-28.04c1.17 5.27-5.38 11.55-6.13 12.9a27.66 27.66 0 0 1-1.67 2.42m7.8-15.32A5.85 5.85 0 0 0 86 40.15a9.33 9.33 0 0 0-4.28-2.36m-25.17.32a2.19 2.19 0 0 0 .56.2m5.8.5c3 .1 5.88.09 5.88.09s.7-.26 1.83-.56m-.53 16.38a43.54 43.54 0 0 0-4.87-6.27m-2.31-9.64a37.78 37.78 0 0 1-5.8-.5m13.51.02c2.51-.68 7.16-1.61 11.15-.54M70.09 54.72a27.37 27.37 0 0 1 4.1 9.69s-.72 4.67 1.44.54a50.87 50.87 0 0 1 4.26-6.57"/><path class="a" d="M95.7 44.7a23.67 23.67 0 0 0 4.36-1.49s19.94-5.39 31.8 4.67 14.91 14.73 14.91 14.73S150 54.71 127 39.26c0 0-4.85-1.62-5.75-2.87a2.85 2.85 0 0 0-2.7-.9s-1.08.9-3.41-.18a8.45 8.45 0 0 0-4.49-.72s-2.16 1.8-4 0a3.05 3.05 0 0 0-3.77-.54s.36.9-3.23.18a49.06 49.06 0 0 0-8.09-.72s.36 2.16-1.62.9l-2-1.26s-5.88 2.53-6.25 4.64m.08 0a1.25 1.25 0 0 0 0 .21m5.92 5.07c.2.3 2.19 3 8 1.63m-31.6 27.36l-.13-.08M95.7 44.7l-.13-.05M79.89 58.38c.78.48 5.19 3.17 6.34 3.33a6 6 0 0 1 4.49 3.77c.72 2.34 2.09 1.8 3.83 2.52s2.1 2.52 2.46 4.49 2-10.24 1.8-12.76 1-13.59-3.1-15m-32.8-5.92c1.35-2-5.8-6.2-5.8-6.2a22.87 22.87 0 0 1-1-2.57m-.04-.04a34.38 34.38 0 0 1-1.83-13.78C55 6.91 59.63 5.66 60.89 4m9.73 34.33v.2m-7.71.28a1 1 0 0 1 0 .09m-.69-36.49c-.43.51-.9 1.08-1.32 1.63m9.72 34.29c.12-.71.63-3.11 2.31-3.57 2-.54 8.44-3.59 6.11-18.51 0 0-.36-11.32-5.75-12.94 0 0-2 1.26-5.75-.72l-3.77-2s-.71.79-1.55 1.79M49.61 36.87c.39.13.74.13 1.11.21 2.57.36 5.13.05 5.83 1M47.85 34a14.17 14.17 0 0 0 .7-2.26c0-1.17 1.67-1.33 1.67-1.33l1.51-1.07a12.58 12.58 0 0 0 .27-4.62c-.36-2.52-3.65-1.82-4.73-2.36s-2.87-.36-4.67-2.7-2.7-2.16-4-2.16-7-2.87-7-2.87m17.62 22.15c-1.64-.46-1.68-1.56-1.39-2.66"/><path class="a" d="M31.6 14.64v-1.26c0-1.26 3.41-3.77 6.47-4.85s9.16-.72 9.16-.72l4.13-3.05C59.12.48 61.5 1.57 62.22 2.41M60.89 4l1.62-1a1.32 1.32 0 0 0-.29-.55m3 46l-6.26-5.3m.04 0c.17.48.32.92.42 1.3.5 1.83 4.5 7.67 4.67 10.33s1.17-6.33 1.17-6.33M47.85 34v.07M59 43.15a27 27 0 0 0-2.41-5m-7.37-1.37l.39.09m15 2.88l.09.32M56.07 30c-2.56 1.47 0 3.41-.22 3.41a44.85 44.85 0 0 0 1.26 4.86"/><path class="a" d="M31.6 14.64l-6-.44c-7.17-1-6.33-.33-14.5 1.17S2.72 21.45 1 24.45 2 43 2.72 36s3.67-8.58 5.58-11.5S20 19 20 19a32.77 32.77 0 0 1 5.83-1.5c2.33-.25 5.8-2.89 5.8-2.89"/><path class="a" d="M42.22 30.61l1.08-.5s-7.83-3.16-11.3-8.16-6.75-3.83-6.75-3.83m16.97 12.49c-.83-.33-9.67 2.33-10.67 2.5s-14 3.83-17 5-8.17 14.84-8.17 17.84 1 12.33 2.62 14.83l6.67 10.33a13.57 13.57 0 0 1 3.67-6.67m22.88-43.83s9.33-.41 9.78-2.91m-25.12 72.58L31 97.61a6.5 6.5 0 0 1 .65.12m24.73 11.05h-2.5m-33.66-4.83c.68.23 4.73 2.52 15.62 3.87m9.54-9.71c-1.83-.17-1.17-.33-3.17-.5s.21-.48-1.85-.19m-13.48 2.86s1.41-3.31-1.6-1.47m20.1-.7c1.83.17.83-2.17.83-2.17l-.79-9.5m8.46 22.36a146.49 146.49 0 0 1-18-1M40 97.48h-.2m-.26.06h.29m-.07-.03h.06m-20.34 5.59a3.05 3.05 0 0 1 .4-2.15s1.83.17 5.17-2l.23-.14m14.55-1.31h.08m-.58.06h.14m40.06 97.46H40m-.09 0h-.08m.34-.04H-.29m39.83.09h.08m-.08 0l-1.65.24c-4.67.67-4 1.33-4.67.67a3.33 3.33 0 0 0-1.51-.71M40 195h.34m-20.12 6.48a1.13 1.13 0 0 1-.73-.85m41.02-11.26H20.13m64.93 27.77l-.27 14.74m0 0l-.29 15.89m1.01-44.12l-.21.07v.36m6.62-101.13c-.46-3-4.25-1.37-4.25-1.37.36.36-.21 3.86-2.17 4.55m-1.28 59.65l.28-15.54m.56-30.63l.23-13.06M71.38 171.1a67.73 67.73 0 0 1-35.5.08M88.31 98.8c-.3.07-.51.14-.51.14m-73.26 49.93c.11 5.41.16 9.32.13 10.2-.12 3.63.5 3.13.5 3.13a79.06 79.06 0 0 0 20.71 9"/><path class="a" d="M88.31 98.8c.67-.16 1.81-.34 2.24.27.63.88 1.38-.25 1.38 3.87m-.01.01v58.75a64.54 64.54 0 0 1-20.54 9.41M13.8 116.23l.37 15.79m.37 16.85c-.09-4.79-.22-10.76-.36-16.85m1.37-34.32c-2.5 1.63-2.12 3.12-2.12 3.12l.38 15.41m1.74-18.53c2.5-1.62 4-3.83 5.83-3.42m23.79-2.46c-.23-1.25-6.42.59-7.56.94m.01 0l-.19.06m-17.21 11.13a7.31 7.31 0 0 0-.73-.85m-.01 0c-1.16-1.17-3.54-2.8-5.93.18m4.17-1.5s2.67-3-2.17-4.08m19.83.08l.34-3.83m36.16 28.81l-.01 1.03m-.33 31.82l-.16 15.49m0 0v.18m.33-32.18l-.17 16.51m.34-32.85v-.15m-.17 16.49l.16-15.31m-17.99-15.01v.02m-.08 16.87l.08-16.87m-.25 49.3l-.08 15.18m.25-47.61l-.09 15.97m0 0l-.08 16.46m-18.02-1.93c-.08-4.93-.16-10.61-.22-16.3m-.2-32.64c0 5 0 10.65.1 16.31M70.9 279.72c.13 8.12.26 14.21.27 15m-.04-63.36c-.4.46-.54 7-.55 15.74m.59 47.73v-.1m-13.16-66.07s-1.5 0-1.5 1.17l.18 13.13m.45 32.66c.15 7.93.15 13.71.15 13.71m-.38-30.16l.23 16.45m-.46-32.66l.23 16.21m49.92 19.99a61.2 61.2 0 0 0 13-5.36m-70-1.38a76.22 76.22 0 0 0 7.31 3.2m31.78 6.03a82.74 82.74 0 0 1-18-1.94m-21.09-7.29l-.54-.26m39.63 9.49a67 67 0 0 0 17.92-2.5m12.95-5.36a63.23 63.23 0 0 0 7.38-4.8M70.9 279.72a95.33 95.33 0 0 1-13.75-4.1M14.18 132a58.68 58.68 0 0 0 7.45 3.6M14 131.95l.18.05m39.53 9.64a76.22 76.22 0 0 0 18-2.54m-36.32.76a81.84 81.84 0 0 1-13.77-4.24m32.09 6.02a79.56 79.56 0 0 1-18.33-1.78m49.41-5.51c2.18-1 4.38-2.14 6.6-3.41m-6.6 3.41a79.55 79.55 0 0 1-13.07 4.74m2.42-15.83a73.06 73.06 0 0 0 10.91-3.65m-31.25 6.06a89 89 0 0 1-18.5-2.11m-13.91-4.15a100.66 100.66 0 0 0 13.9 4.14m-21.49-7.32l-.25-.12m71.51 3.5a46.13 46.13 0 0 0 6.83-3.5m-20.02 7.68l.67-.15m-51.15-4.23q-3.73-1.4-7.59-3.18m60.34 7.03l-1.61.39m-18.73 2.02a81.64 81.64 0 0 0 18.08-1.87m-26.5-25.69s2.92.58 3.92.83m-9.75-2.24l.81.72m0 0l3.94 3.53m4.14 6.54l-5.75-1.5m-8.64-4.29l2.5 2m6 0l-1.5-3.5m8.25 3.25h2.75m-25-.5l-1-.75m4.75.5v2m9.25.5l-1.5 2m1-4l-1.25-1.5m-13.75 1.75l-1-2m22.49.27l2.02 1.46m3.49 2.77l2 1.75m-18.75-2.25l-2.25.5m.75-6.5l-3 1m8-2.25l-.5 1.75"/><path class="b" d="M62.72 70.28s-1.33-1.33-1.33 0a1.43 1.43 0 0 1-1.17 1.5s-10.33-.17-11.67 6l-1.33 6.17s.67.83.17 3.33-1.17 5.33-.5 5.67.5 3 .5 3 3.67 5 4 5.67 2.17 3.67 2.17 3.67 9 10.83 16.33 15.33c0 0 3.33 3.17 3.17 4.33 0 0 7.83-12.17 9.83-14.5S90 98.78 91 82.94l-.33-3.5s-.67 1.33-2.83 1a3.77 3.77 0 0 1-2.84-2.5l-1-2.5s-4.5-2.67-5.83-3.33-6.17-.67-7-.17-3.17 2-6.67-.83z"/><path class="b" d="M56.55 71.94s-1.67-6.5-8.67-4.5c0 0-1.17 4.67-4.67 4.67S43 70.28 43 70.28s-4.67-11.17-19-3.67"/><path class="b" d="M47.22 85.11s-3.33 1.83-4.33 4.67a72.9 72.9 0 0 0-7.17 4.17s-7.17 7.5-8.83 6.33-5.5-6-5.5-6-3.67-10.67-3.67-12a76 76 0 0 1 1.67-7.83s11.5-19 17-27.17a82.69 82.69 0 0 1 11.33-13.5l1.5 3s-2.33 2.83-2.33 4.67.11 4.83.11 4.83l.5 2.17.17 6.17s4.17-3.67 5.33-5.5 3-4.83 3-4.83c.5.67-1.17-2.67-4.5-5.5s-3.83-5-3.83-5"/><path class="b" d="M44.55 71.94V59.61c0-1-.17-5.67-10.17-9m.84-1.5l5.67 3 3.67 3.67.17-7.5s-.33-4 0-4.5-2.83-3.67-2.83-3.67m5.98 27.33l1-9.67 2.17-2.67c.67-.84 7.33-6 7.17-7.17S56 44.28 56 44.28"/><path class="b" d="M58.22 47.94s4.33 9.5 4.17 10.83-2.17 13-2.17 13m10.16-16.99c-.5-1.17-4.67 6.83-4.67 6.83l-1.17 9.5"/><path class="b" d="M65.22 48.44s7.53 7.7 9 16c0 0-.72 4.67 1.44.54s5-7.37 5.93-9S91.62 45.72 86 40.15s-17.2-1.26-17.2-1.26-10.84 0-12.25-.78"/><path class="b" d="M87.66 43s2.7 4.49 12.4.18c0 0 19.94-5.39 31.8 4.67s14.91 14.73 14.91 14.73S150 54.71 127 39.25c0 0-4.85-1.62-5.75-2.87a2.85 2.85 0 0 0-2.7-.9s-1.08.9-3.41-.18a8.45 8.45 0 0 0-4.49-.72s-2.16 1.8-4 0a3.05 3.05 0 0 0-3.77-.54s.36.9-3.23.18a49.06 49.06 0 0 0-8.09-.72s.44 2.16-1.56.9l-2-1.26s-6.29 2.7-6.29 4.85"/><path class="b" d="M79.76 58.3s5.21 3.23 6.47 3.41a6 6 0 0 1 4.49 3.77c.72 2.34 2.09 1.8 3.83 2.52s2.1 2.52 2.46 4.49 2-10.24 1.8-12.76 1.08-13.84-3.23-15.09m-24.99-6.11s.41-3.23 2.34-3.77 8.44-3.59 6.07-18.51c0 0-.36-11.32-5.75-12.94 0 0-2 1.26-5.75-.72l-3.77-2S62.15 2.42 60.89 4 55 6.91 54.24 16.25a33.47 33.47 0 0 0 2.87 16.35s7.37 4.31 5.75 6.29"/><path class="b" d="M60.89 4l1.62-1s-.72-4-11.14 1.8l-4.13 3.01s-6.11-.36-9.16.72-6.47 3.59-6.47 4.85v1.26s5.75 2.87 7 2.87 2.16-.18 4 2.16 3.59 2.16 4.67 2.7 4.37-.16 4.73 2.36a12.58 12.58 0 0 1-.24 4.65l-1.51 1.07s-1.67.17-1.67 1.33-2.33 4.17.67 5a11.66 11.66 0 0 0 1.5.3c2.57.36 5.13.05 5.83 1a27 27 0 0 1 2.41 5c.17.48.32.92.42 1.3.5 1.83 4.5 7.67 4.67 10.33s1.17-6.33 1.17-6.33L59 43.14"/><path class="b" d="M57.21 38.63s-1.53-5.19-1.36-5.19-2.35-1.94.24-3.44M31.6 14.64s-3.47 2.64-5.8 2.89A32.77 32.77 0 0 0 20 19s-9.75 2.58-11.67 5.5S3.47 29 2.72 36-.62 27.44 1 24.44s2-7.58 10.13-9.08 7.33-2.17 14.5-1.17l6 .44"/><path class="b" d="M25.22 18.11s3.25-1.17 6.75 3.83 11.33 8.17 11.33 8.17l-1.08.5c-.83-.33-9.67 2.33-10.67 2.5s-14 3.83-17 5-8.17 14.83-8.17 17.83 1 12.34 2.62 14.84l6.67 10.33a13.57 13.57 0 0 1 3.67-6.67m22.88-43.83s9.33-.42 9.75-2.92m4.41 81.09c-26.83.33-35.17-4.5-36.17-4.83s-1-1.83-.33-3c0 0 1.83.17 5.17-2s1.83 1.33 1.83 1.33L31 97.61a4.41 4.41 0 0 1 2.17.83c.67.67 0 0 4.67-.67l2.33-.33c2.33-.33 0 0 2 .17s1.33.33 3.17.5.83-2.17.83-2.17l-.79-9.5m46.54 16.5c-.46-3-4.25-1.37-4.25-1.37.38.38-.25 4.13-2.37 4.63l-1.08 59.58"/><path class="b" d="M87.8 98.94s2.13-.75 2.75.13 1.38-.25 1.38 3.88v58.75s-34.37 26.25-76.75.5c0 0-.62.5-.5-3.12s-1.25-58.25-1.25-58.25-.37-1.5 2.13-3.12 4-3.83 5.83-3.42m16.03-1.47s7.5-2.37 7.75-1m-24.95 12.12s-3.33-4.83-6.67-.67m4.17-1.49s2.67-3-2.17-4.08m19.83.08l.34-3.84m35.66 77.34l.5-48.67m-18.33 50.67l.33-64.5m-18 62.5s-1.33-63.5 0-63.5"/><path class="b" d="M22.72 105.11s-1.5 0-1.5 1.17.83 59.5.83 59.5M14 148.61s42.67 23.33 77.83-3.17M14 131.94s36.33 22.5 77.33-1m.55-14.83s-32.17 21.5-78.33 0m31.83-18s2.92.58 3.92.83m-9.75-2.25l4.75 4.25m-1.61 5.04l5.75 1.5m-14.39-5.79l2.5 2m4.5-3.5l1.5 3.5m6.75-.25h2.75m-26-1.25l1 .75m3.75 1.75v-2m7.75 4.5l1.5-2m-1.75-3.5l1.25 1.5m-16-1.75l1 2m21.49-1.73l2.02 1.46m3.49 2.77l2 1.75m-21-1.75l2.25-.5m-4.5-5l3-1m4.5.5l.5-1.75"/></svg>