<svg xmlns="http://www.w3.org/2000/svg" viewBox="0 0 148.56 207.72"><defs><style>.a{fill:#5f9e6a;}.b{fill:none;stroke:#323339;stroke-miterlimit:10;}</style></defs><title>Untitled-9</title><path class="a" d="M66.28,147.42c3.35-2.39,4.65-3.76,7.63-3,3.51,0.89,1.32,2.54,4.1,2a49.82,49.82,0,0,1,6.49-.66s0.31-.8,1.12.08l0.81,0.87s1-2.39-.57-3.68a65.43,65.43,0,0,1-5.59-6.32,23.41,23.41,0,0,0-3.76-2"/><path class="a" d="M56.59,142.39a19.89,19.89,0,0,1-.86-4.78A9.33,9.33,0,0,0,54.49,134s-0.21-1,6.22-1.49"/><path class="a" d="M66.28,147.42l-0.75.53"/><path class="a" d="M58.72,146.89c0,0.1,0,.19,0,0.27,0,0.9.61,4.8,5.55,1.61,0.44-.29.85-0.56,1.23-0.83"/><path class="a" d="M56.59,142.39a1.92,1.92,0,0,0,.68,1.12c0.73,0.28,1.32,2.34,1.44,3.38"/><path class="a" d="M60.71,132.46c0.91-.07,2-0.12,3.15-0.16a29.86,29.86,0,0,1,12.66,2.42"/><path class="a" d="M70.61,132.75s-7.49-9.4-13.77-9.19c0,0-5.75-.71-6.6.67s-1.39,2.18-1.39,2.18,3.71,3.69-1.24-.18c0,0-4.12-2.56-7.2-.66,0,0,3.52,1.34,3.57,2.69s3.49,0.33,3.61.67,1.81,0.5,2.15.49a23,23,0,0,1,3.85,1.11C55,131,53.27,130.85,55,131s4.5,0.52,4.5.52l1.25,0.91"/><line class="a" x1="60.71" y1="132.46" x2="60.78" y2="132.51"/><path class="a" d="M108.12,139.85l0-.08"/><path class="a" d="M93,147.27a2,2,0,0,0,.85.14l1.34,0,2.89,0.83L98.6,149c1.85,2.46,6.21,4.59,6.24,5.6s0.66-.36,1.32-3.33,1.49-3.25,1.62-4.51a5.45,5.45,0,0,1,.24-0.92"/><path class="a" d="M97.39,131.84l-0.19.05a0.64,0.64,0,0,0,.19-0.05"/><path class="a" d="M97.39,131.84c0.11-.06,0-0.19-1.13-0.42"/><path class="a" d="M96.25,131.42c-1.86-.36-0.78-0.73-1.14-1.39s1.57-.73-0.36-0.66l-2.69.09H91.23l-2,.07a0.64,0.64,0,0,0-1.09.12,6.1,6.1,0,0,1-1.72,1.4s1.55,1,.46,1.08-4.68,3.52-4.68,3.52"/><path class="a" d="M82.17,135.67s-1.29,1.81.95,3.25,4.06,0.54,4.09,1.55a20.69,20.69,0,0,0,1,3.67l0,1.34,0.18-2.19s2.07,1.61,2.94,2.43A6.61,6.61,0,0,0,93,147.27Z"/><path class="a" d="M117.92,132.64c0,1.09-.91,2.89.53,3.26a5,5,0,0,1,2.78,2.77c0,0.42-.2-0.83,0,0.42s0.33,2.35.33,2.35"/><path class="a" d="M117.92,132.64a1.14,1.14,0,0,0-.07-0.37"/><path class="a" d="M121.58,141.44l5.1,9.34s1.72-3.84,1.15-5.84-0.31-1.76-1.25-2.23-2-.94-2-0.94,0.45-1.53-.15-2.1-1.51-2.31-2.65-3.87Z"/><path class="a" d="M117.85,132.27c-0.29-.76-1.39-1-2.54-2.32-1.31-1.56-3.65-1.06-5.93-1.32s-7.11,2.55-7.6,2.83"/><path class="a" d="M101.77,131.47l0,0"/><path class="a" d="M112,125.41l-0.16-.14"/><path class="a" d="M117.92,132.64a2.22,2.22,0,0,0-.07-0.37"/><path class="a" d="M115.49,127.93l9.38-4s3.79,0,5.64.07"/><path class="a" d="M125.77,125.47a2.63,2.63,0,0,1,1.65-.63c1.43,0,2.94-.18,4,0.71s3.19,2.42,3.19,2.42,1.09,2.57,1.12.8,0.49-.35-1.51-2.31-1.85-2.38-3.7-2.49"/><path class="a" d="M125.77,125.47a2.36,2.36,0,0,0-.42.45,16.16,16.16,0,0,1-2.84.51c-1.09,0-5.81,2.38-5.81,2.38"/><path class="a" d="M113.83,126a30.86,30.86,0,0,1,7.37-3.52c4.49-1.49,9.31,1.54,9.31,1.54"/><path class="a" d="M117.39,131.73c-2.55-.5-9.57,1.84-11.46,2.5"/><path class="a" d="M105.92,134.23l-0.48.17"/><path class="a" d="M125.18,125.59l0.6-.12"/><path class="a" d="M118.44,131.61h-0.21"/><path class="a" d="M118.44,131.61c1.62-.08,12.28-0.59,14,0.13a24.33,24.33,0,0,1,3.17,1.58s0.18-2.11-2.39-3.62a16.65,16.65,0,0,1-3.8-2.9s-2.24-1.61-3.24-1.41l-0.41.08"/><path class="a" d="M108.12,139.85c1.11-.17,8.58-1.3,9.85-0.56s3.54,2.83,3.61,2.15Z"/><path class="a" d="M114.12,132.18c-0.65.61-1.32,0.8-1.29,1.56a4.83,4.83,0,0,1-1.33,3.16c-0.72.54-2.87,2.41-3.4,2.87Z"/><path class="a" d="M108.1,139.76l-0.12.11,0.14,0"/><path class="a" d="M124.84,141s5.17-1.35,6.14-2.73S133.4,135,133.4,135s-0.19-.75-0.44-0.66-1.69-.36-1.69-0.11-0.92.2-1.59,0.3-1.68.14-1.68,0.14l-1-.3a18.09,18.09,0,0,0-2.68.26,8,8,0,0,0-1.17.12,1.08,1.08,0,0,0-.56.78l-0.75.28Z"/><path class="a" d="M75.33,132.75L70,123.87s-5.62-9.58-7.84-13.12-5.71-4.61-9.3-6.34-5.29.43-7.72,0.59a3.93,3.93,0,0,0-3.3,2s-4.29.06-9.22-4.07-8.45-1.07-8.45-1.07l-6.56,5.27A8.1,8.1,0,0,1,14,108.56c-1.68.06-1.92,0.4-1.92,0.4a3.59,3.59,0,0,0,2.42,2,4.8,4.8,0,0,0,2.7.33A22.15,22.15,0,0,1,20,114.25c1.23,1.64-.68,2.21-0.56,3.3s1.52,0.12,2.44.09,2.58-1,4.91-1.68,1-1.89,2.28-2.26a23.77,23.77,0,0,0,5.9-2.38c1.64-1.15,7.16-2.42,7.16-2.42,10.29,0.84,24.53,19.3,24.53,19.3"/><line class="a" x1="75.33" y1="132.75" x2="76.52" y2="134.72"/><line class="a" x1="76.59" y1="134.85" x2="76.52" y2="134.72"/><path class="a" d="M51.5,76.73l0.18,0.09"/><path class="a" d="M51.68,76.82a13.49,13.49,0,0,1,2,1.18c2.07,1.5,5.06,3.76,5.31,4.54s3.95,4,4.64,7.92,14.73,45.06,14.73,45.06Z"/><path class="a" d="M51.5,76.73a14.11,14.11,0,0,0-2.18-.84c-7.26-5.71-8.77-3.86-11-4.46s-3.49-.22-7,0.12-2.45.53-6,.76-4.85,5.88-5.5,6.8S15,78.94,15,78.94s0.94-2.16-1.18,1.72a4.25,4.25,0,0,1-.3.47c-2.65,3.65-12.38,6.35-12.38,6.35,2.18,1.61,9.76-3.35,15.1-4.87s2.86-1.78,10.72-5,13.6,0.9,17.91,2.1,6.83-2.93,6.83-2.93Z"/><path class="a" d="M75.33,132.75l0.59,1.39"/><path class="a" d="M51.5,76.73a0.46,0.46,0,0,0,.18.09"/><path class="a" d="M65.76,81.36l0.33,0.2"/><path class="a" d="M97.09,97.48a28.12,28.12,0,0,1,3,6.25c3.33,12.67,1.68,10.66,2.41,14.21Z"/><path class="a" d="M90.14,91.77h0"/><path class="a" d="M97.72,97.52A49.24,49.24,0,0,0,92,92.32a2.8,2.8,0,0,0-1.91-.55Z"/><path class="a" d="M66.09,81.56a8.53,8.53,0,0,1,3.15,3,22.94,22.94,0,0,0,3.53,4.93c0.7,0.76,3.06,4.39,13.94,4.25a6.09,6.09,0,0,1,3.41-2"/><path class="a" d="M51.68,76.82h0"/><path class="a" d="M65.76,81.36c-0.4-.24-0.68-0.38-0.68-0.38a37.28,37.28,0,0,0-6.25-5.85c-3.68-2.68-10.77-3.46-10.77-3.46a18.31,18.31,0,0,0,3.44,5.06Z"/><path class="a" d="M94.3,99.57a25.94,25.94,0,0,1-4.16-7.79Z"/><path class="a" d="M83.9,121.56l6.22-29.79c0,0.87-.6,11.16-2.09,14.59-1.56,3.59-4.69,5.88-4.13,15.2"/><path class="a" d="M94.3,99.57c1.42,1.9,2.72,3.28,3.17,3.91,0.94,1.32,1.8,7,2.12,13.28Z"/><path class="a" d="M70.48,79.52l0,0"/><path class="a" d="M65.76,81.36L66,81.63l0.09-.06"/><path class="a" d="M70.46,79.48l0.07,0a16.22,16.22,0,0,1,3.57-.68c1.12,0,1-.26,4,1.89Z"/><path class="a" d="M64,78.44l0,0"/><path class="a" d="M64,78.44a6.91,6.91,0,0,1-.4-2.07c0-1.51-.36-7-1-12.49"/><path class="a" d="M70.46,79.48a9.57,9.57,0,0,0-1.31.42"/><path class="a" d="M69.26,63.9C69.19,63,69.11,62.08,69,61.39c-0.25-2.35-.3-3.86-0.5-5s0.43-2.2.39-3.38a8,8,0,0,1,.57-3c0.31-.85,2.64-11.87,2.64-11.87s1.26-7.78,1.05-9-2.05-.94-2.57-1.43S69.19,25.2,68.68,25s-2.55-.93-2.59-2.1-1.77-2.63-2.82-3.78-3.1-7.13-3.62-7.79-4.32-8.61-4.32-8.61S53.9,0.63,52.72.5,51,13.85,51,13.85l0.25,2.52a6.4,6.4,0,0,1-2.8,1.78c-1.34.21,1.05,1.31-.3,1.19a6.81,6.81,0,0,1-2-.44C42.37,18.34,44.61,20,44.61,20a7.91,7.91,0,0,1,6.15,7.87c2.17,14.74,5.37,19.85,8.51,23.28a7.76,7.76,0,0,1,1.34,2.66Z"/><path class="a" d="M66.63,87a16.34,16.34,0,0,1,3.22,2.36,13.66,13.66,0,0,0,12.6,4.3l0.77-1L77,90.89s2.54,1.21-2.42-.79-8-3.11-8-3.11,9.07,23.26,9.94,42.87Z"/><path class="a" d="M137.79,66.08c0.22-1,.68-2.85,1.32-2.79,0.9,0.08.77-3.84,0.77-3.84l0.59-2.6s-7.73,3.85-8.58,5.11-5.56,8.15-6.07,10-1.48,4.43-2.06,4.6Z"/><path class="a" d="M137.79,66.08c-0.09.43-.14,0.73-0.14,0.73s-8.48,15.09-14.15,20c-5.19,4.49-11.87,15.32-12.89,19.18Z"/><path class="a" d="M123.76,76.51h-0.09"/><path class="a" d="M123.76,76.51a9.4,9.4,0,0,0,0-3.64s4.65-12,7.17-13.92,5.74-6.36,9.43-6.48,6-.42,6.33-2.12,1.4-5.21,1.4-5.21l-0.53-2.45c-0.75.92-2.08,1.42-2.32,1s0.63-1.37,1.18-1.5-2.61-.92-2.61-0.92-9.27-2.27-15.21,4.88S119.42,55,119,55.2s-2.84,2.45-3,4-5,16.21-5,16.21l-3.3,12.34a11.62,11.62,0,0,1-.17,5.05c-0.68,3.28-3.15,6.5-3.07,9.08,0.07,2.23-1.37,11.82-1.76,14.36Z"/><path class="a" d="M103,118.21l7.1-19.42s4.22-8.1,6.18-10c1.6-1.52,6.53-6.84,7.48-12.32Z"/><line class="a" x1="60.61" y1="53.76" x2="60" y2="52.77"/><path class="a" d="M60.61,53.76l0.33,0.54s2.94,4.17,3.21,5.39A17.33,17.33,0,0,0,66,64.8c1.32,2.54,0,0,.63,2,0.56,1.78,2.16,11.08,2.51,13.1Z"/><path class="a" d="M69.14,79.89l0.07,0.39"/><path class="a" d="M79.47,121.62c0,0.58.07,1.06,0.12,1.4,0.43,2.9.13,7.4,0.38,8.07s2.2,4.58,2.2,4.58Z"/><path class="a" d="M69.26,63.9l-0.15-.1"/><path class="a" d="M69.26,63.9c4.17,2.8,7.24,11.56,8.36,15.18,0.3,1,.47,1.58.47,1.58Z"/><path class="a" d="M62.6,63.89h0.13"/><path class="a" d="M64.23,79c0-.17-0.11-0.34-0.17-0.5"/><path class="a" d="M64,78.44l0,0"/><path class="a" d="M62.6,63.89c-1.46,0-2-1-3.27-1s-4.15-.09-5.72,0-4.3-1-4.88-1.75-2.92-3.61-3.33-2.25,1.65,5.89-.23,6.51,1.52,1.75,1.52,1.75L49.93,67a6.7,6.7,0,0,1,4.52,1.08c1.44,1,8,5.83,9.59,10.35Z"/><line class="a" x1="70.44" y1="90.23" x2="75.85" y2="121.58"/><path class="a" d="M79.44,121.63h0s-0.05.89,2.49,1.31,1.94-1.37,1.94-1.37c-1.17.38-1.51,0-2.46-.68s-1.07.67-2,.73"/><path class="a" d="M86.31,121.62a13.11,13.11,0,0,1,1.73.48c0.85,0.31,4.52-.82,4.8.18a9.08,9.08,0,0,0,.59,1.37"/><path class="a" d="M96.31,130.58a12.8,12.8,0,0,0-1.49-4.33c-0.18-.38-0.86-1.56-1.39-2.61"/><path class="a" d="M89.88,129.36a9.35,9.35,0,0,0,2.28-4.79c0.57-3.13,1.26,0,1.23-.88l0,0"/><path class="a" d="M98.84,123.18c-3.27,1.41-1.52,3.26-1,3.76Z"/><path class="a" d="M98,127.07l-0.16-.13"/><path class="a" d="M110.61,106l-0.13.15"/><path class="a" d="M128.19,81.65c0.93,0.22-4.51,8.82-5.47,10.11s-10.84,12.75-12.1,14.22Z"/><path class="a" d="M137.79,66.08c0.8-.51,4-2.58,4.08-3.39s2.55,5.37,3.85,6.15Z"/><path class="a" d="M145.5,69.81c0.48-.3.85-0.66,0.27-0.94l-0.06,0"/><path class="a" d="M145.71,68.83a4.18,4.18,0,0,1-.21,1"/><path class="a" d="M108.68,125.54s5.36-5.73,7.76-7.07,1.93-2.76,4.22-4.68,2.3-4.11,3.93-5.85,7.05-8.14,7.56-10.52,3.3-7.09,7.43-11.94,8.21-16.26,6.16-17.2c0,0,0,.24,0,0.55Z"/><path class="a" d="M137.6,66.19l0.18-.12"/><path class="a" d="M145.5,69.81c-0.58.37-1.32,0.66-.77,0.69a0.85,0.85,0,0,0,.77-0.69"/><path class="a" d="M90.07,87.78c0,0.06,0,.13,0,0.18"/><path class="a" d="M90.07,87.78a84.75,84.75,0,0,1-.78-9.55c-0.09-2.69,2.66-6,2.92-8.34s2.11-7.31,2-9.49,3.1-8,3.72-9.55,4.75-6.47,4.75-6.47Z"/><path class="a" d="M86.31,121.62l0,0.11"/><path class="a" d="M94.36,99.43l-0.06.14-8,22.06c-0.2-.73-1.37-5.23,0-7.12A41.08,41.08,0,0,0,92,104.89l2.28-5.32"/><path class="a" d="M105.78,63.2l0.1-.79"/><path class="a" d="M96.05,94.66s1.34-10.31,1.26-12.83,0.71-3.89,1.37-4.42,1.13-6.43,2.29-7,4.79-2.85,4.74-4.36c0-.76.15-1.73,0.21-2.59a4.68,4.68,0,0,0,0-1.06Z"/><path class="a" d="M105.89,62.41c0.33-2.6,1.36-10.82,1.28-13.22-0.09-2.86,4.23-9.56,5.65-12.47s5.57-4.73,6.47-8-0.59-2.5-1.09-2.32-9.37,6.7-9.37,6.7-2.76,3.12-4.53,5.53-1.42,8-1.85,10.33,1.91,11.89,2.94,12.52a1.2,1.2,0,0,1,.5.87"/><path class="a" d="M56.59,142.39a2.24,2.24,0,0,0-2.37.43c-1.79,2-1.3,2.69-1.26,2.57l3.13,1.41"/><path class="a" d="M58.72,146.89a23.84,23.84,0,0,1-2.63-.09"/><path class="a" d="M58.72,146.89c0.29,0,.37-0.1,0-0.23"/><path class="a" d="M56.59,142.39h0.14"/><path class="a" d="M93,147.27c-3.35.58-9.41,0.65-14.91,0.56"/><path class="a" d="M66.28,147.42h0a2.36,2.36,0,0,0-.74.53"/><path class="a" d="M66.28,147.42c0.16,0,5.62.31,11.8,0.41"/><path class="a" d="M66.31,206.58v0"/><path class="a" d="M93,147.26h0"/><path class="a" d="M108,145.85c0.62-.08,2.7-0.36,4.72-0.69"/><path class="a" d="M108,145.85l-0.19,0"/><path class="a" d="M108.88,139.9l0.67,0a6.11,6.11,0,0,1,1.12.08c0.51,0.1,1,.92,2.27.93h1.35s1.51-.22,2.35-0.25,0.43,1.28.43,1.28l0.3,0.72a1.05,1.05,0,0,1-.34,1.53,20.06,20.06,0,0,1-4.3.94"/><line class="a" x1="118.63" y1="171.34" x2="118.44" y2="157.38"/><path class="a" d="M49.95,186.41c0.19,6.44.32,11.48,0.3,12.86-0.07,4.71,10.88,6.6,10.88,6.6a43.87,43.87,0,0,0,5.18.71"/><path class="a" d="M114.76,202.51c3.46-1.92,4.25-3.71,4.25-3.71l-0.38-27.46"/><path class="a" d="M55.76,142.14s-2.37-.75-5.63,2.5a5.21,5.21,0,0,0-1.49,2.52s0.16,4.63.39,11.13"/><path class="a" d="M49,158.29c0.14,4.23.31,9.24,0.48,14.3"/><path class="a" d="M66.31,206.58a217.77,217.77,0,0,0,26,.51"/><path class="a" d="M49.95,186.41c-0.13-4.22-.28-9-0.44-13.82"/><path class="a" d="M114.76,202.51c-3.68,2-10.38,4.23-22.4,4.57"/><path class="a" d="M117.21,140.91a2.25,2.25,0,0,1,1.76,2.41c-0.27,1.92-.6,8.94-0.6,8.94l0.07,5.12Z"/><path class="a" d="M78.08,147.83l0.21-.08"/><path class="a" d="M112.74,145.17h-0.1"/><path class="a" d="M114.76,202.51v0"/><path class="a" d="M112.74,145.17c0.31,0,1.25.31,1.31,2.08,0,0.61.09,5.42,0.17,12Z"/><path class="a" d="M49.95,186.41l-0.13-.14"/><path class="a" d="M49.48,172.49s0,0.07,0,.11"/><path class="a" d="M118.66,171.32l0,0"/><path class="a" d="M49,158.29c-0.09-.08-0.18-0.17-0.25-0.25"/><line class="a" x1="87" y1="141.66" x2="84.97" y2="141.3"/><line class="a" x1="87.45" y1="145.09" x2="86.93" y2="144.52"/><line class="a" x1="89.51" y1="146.37" x2="88.81" y2="145.47"/><line class="a" x1="88.68" y1="146.65" x2="87.75" y2="146.43"/><line class="a" x1="75.88" y1="146.48" x2="74" y2="145.62"/><line class="a" x1="71.09" y1="146.39" x2="70.64" y2="145.73"/><line class="a" x1="71.8" y1="145.1" x2="71.28" y2="144.62"/><line class="a" x1="56.03" y1="144.11" x2="55.16" y2="143.3"/><line class="a" x1="53.19" y1="144.62" x2="54.46" y2="144.83"/><line class="a" x1="56.77" y1="146.02" x2="56.08" y2="145.62"/><line class="a" x1="56.97" y1="144.33" x2="57.47" y2="144.23"/><line class="a" x1="74.04" y1="146.71" x2="72.85" y2="146.33"/><line class="a" x1="84.33" y1="147.38" x2="85.14" y2="146.6"/><line class="a" x1="81.2" y1="146.81" x2="82.63" y2="146.77"/><line class="a" x1="84.27" y1="140.4" x2="84.16" y2="139.73"/><line class="a" x1="85.7" y1="140.35" x2="86.62" y2="140.32"/><line class="a" x1="86.35" y1="142.44" x2="86.38" y2="143.36"/><line class="a" x1="90.71" y1="147.09" x2="90.18" y2="146.26"/><line class="a" x1="111.31" y1="141.28" x2="109.87" y2="141.32"/><line class="a" x1="109.54" y1="141.33" x2="109.87" y2="141.32"/><line class="a" x1="112.01" y1="142.26" x2="112.15" y2="143.77"/><line class="a" x1="113.78" y1="142.29" x2="115.46" y2="142.23"/><line class="a" x1="116.03" y1="144.15" x2="114.69" y2="144.53"/><line class="a" x1="116.44" y1="141.19" x2="116.49" y2="142.7"/><line class="a" x1="115.66" y1="143.15" x2="114.57" y2="143.19"/><line class="a" x1="112.18" y1="144.95" x2="111.41" y2="144.39"/><line class="a" x1="108.96" y1="144.21" x2="108.89" y2="144.72"/><line class="a" x1="109.84" y1="142.84" x2="108.96" y2="141.69"/><line class="a" x1="111.03" y1="143.22" x2="110.59" y2="145.09"/><line class="a" x1="110.59" y1="142.48" x2="110.89" y2="141.37"/><line class="a" x1="109.5" y1="140.16" x2="109.87" y2="141.32"/><line class="a" x1="109.87" y1="141.32" x2="109.97" y2="141.66"/><line class="a" x1="113.24" y1="141.3" x2="112.94" y2="142.4"/><line class="a" x1="114.43" y1="144.29" x2="113.42" y2="144.07"/><line class="a" x1="79.18" y1="147.05" x2="79.17" y2="146.46"/><line class="a" x1="68.82" y1="146.46" x2="68.13" y2="146.15"/><line class="a" x1="72.54" y1="147.18" x2="72.04" y2="147.28"/><line class="a" x1="72.63" y1="144.91" x2="72.54" y2="144.57"/><line class="a" x1="55.15" y1="145.32" x2="55.46" y2="144.55"/><line class="a" x1="54.49" y1="143.24" x2="54.47" y2="142.73"/><line class="a" x1="57.93" y1="145.48" x2="56.75" y2="145.52"/><line class="a" x1="72.21" y1="144.75" x2="71.85" y2="146.7"/><path class="b" d="M80.27,136.69a29.39,29.39,0,0,0-16.41-4.39c-9.64.32-9.37,1.66-9.37,1.66a9.33,9.33,0,0,1,1.24,3.66c0.06,1.68.75,5.59,1.54,5.9s1.44,2.76,1.47,3.65,0.61,4.8,5.55,1.61,6.11-5.25,9.62-4.36,1.32,2.54,4.1,2a49.81,49.81,0,0,1,6.49-.66s0.31-.8,1.12.08l0.81,0.87s1-2.39-.57-3.68A65.44,65.44,0,0,1,80.27,136.69Z"/><path class="b" d="M70.61,132.75s-7.49-9.4-13.77-9.19c0,0-5.75-.71-6.6.67s-1.39,2.18-1.39,2.18,3.71,3.69-1.24-.18c0,0-4.12-2.56-7.2-.66,0,0,3.52,1.34,3.57,2.69s3.49,0.33,3.61.67,1.81,0.5,2.15.49a23,23,0,0,1,3.85,1.11C55,131,53.27,130.85,55,131s4.5,0.52,4.5.52l1.32,1"/><path class="b" d="M82.17,135.67s-1.29,1.81.95,3.25,4.06,0.54,4.09,1.55a20.69,20.69,0,0,0,1,3.67l0,1.34,0.18-2.19s2.07,1.61,2.94,2.43,1.15,1.73,2.5,1.68l1.34,0,2.89,0.83L98.6,149c1.85,2.46,6.21,4.59,6.24,5.6s0.66-.36,1.32-3.33,1.49-3.25,1.62-4.51,2.3-4.11-1.57-12c0,0-1.93-5.07-9-2.9,0,0,.92-0.11-0.94-0.47s-0.78-.73-1.14-1.39,1.57-.73-0.36-0.66l-2.69.09-0.84,0-2,.07a0.64,0.64,0,0,0-1.09.12,6.1,6.1,0,0,1-1.72,1.4s1.55,1,.46,1.08S82.17,135.67,82.17,135.67Z"/><path class="b" d="M101.73,131.49s5.37-3.12,7.65-2.86,4.62-.24,5.93,1.32,2.58,1.6,2.61,2.69-0.91,2.89.53,3.26a5,5,0,0,1,2.78,2.77c0,0.42-.2-0.83,0,0.42s0.33,2.35.33,2.35l5.1,9.34s1.72-3.84,1.15-5.84-0.31-1.76-1.25-2.23-2-.94-2-0.94,0.45-1.53-.15-2.1-1.51-2.31-2.65-3.87-1.85-2.55-1.85-2.55l-2.36-2.53a5.57,5.57,0,0,0-2.11-2.79c-1.55-1-1-2.91-4.62-2.46s-6.94,1.24-6.94,1.24l-3.55,4.58"/><path class="b" d="M111.87,125.27s5.88,4.85,6,7.37"/><path class="b" d="M116.7,128.81s4.72-2.34,5.81-2.38a16.16,16.16,0,0,0,2.84-.51,2.59,2.59,0,0,1,2.07-1.08c1.43,0,2.94-.18,4,0.71s3.19,2.42,3.19,2.42,1.09,2.57,1.12.8,0.49-.35-1.51-2.31-1.85-2.38-3.7-2.49-5.64-.07-5.64-0.07l-9.38,4"/><path class="b" d="M130.51,124s-4.81-3-9.31-1.54a30.86,30.86,0,0,0-7.37,3.52"/><path class="b" d="M105.44,134.4s9-3.24,11.94-2.67"/><path class="b" d="M118.22,131.62s12.35-.66,14.22.12a24.33,24.33,0,0,1,3.17,1.58s0.18-2.11-2.39-3.62a16.65,16.65,0,0,1-3.8-2.9s-2.24-1.61-3.24-1.41l-1,.2"/><path class="b" d="M114.12,132.18c-0.65.61-1.32,0.8-1.29,1.56a4.83,4.83,0,0,1-1.33,3.16c-0.82.62-3.52,3-3.52,3s8.62-1.38,10-.58,3.54,2.83,3.61,2.15"/><path class="b" d="M124.84,141s5.17-1.35,6.14-2.73S133.4,135,133.4,135s-0.19-.75-0.44-0.66-1.69-.36-1.69-0.11-0.92.2-1.59,0.3-1.68.14-1.68,0.14l-1-.3a18.09,18.09,0,0,0-2.68.26,8,8,0,0,0-1.17.12,1.08,1.08,0,0,0-.56.78l-0.75.28"/><path class="b" d="M66.61,128.19s-14.24-18.46-24.53-19.3c0,0-5.51,1.28-7.16,2.42A23.77,23.77,0,0,1,29,113.7c-1.25.38,0.05,1.6-2.28,2.26s-4,1.65-4.91,1.68-2.32,1-2.44-.09,1.8-1.66.56-3.3a22.15,22.15,0,0,0-2.71-2.94,4.8,4.8,0,0,1-2.7-.33,3.59,3.59,0,0,1-2.42-2s0.24-.34,1.92-0.4a8.1,8.1,0,0,0,3.57-1.38l6.56-5.27s3.52-3.06,8.45,1.07S41.85,107,41.85,107a3.93,3.93,0,0,1,3.3-2c2.43-.16,4.13-2.32,7.72-0.59s7.08,2.8,9.3,6.34S70,123.87,70,123.87l6.59,11"/><path class="b" d="M75.93,134.14S61.69,100.5,56.72,92.82,49.15,80.95,44.85,79.74s-10-5.28-17.91-2.1-5.38,3.43-10.72,5S3.31,89.08,1.12,87.47c0,0,9.73-2.7,12.38-6.35a4.25,4.25,0,0,0,.3-0.47C15.92,76.77,15,78.94,15,78.94s4.19,1.1,4.83.18,1.91-6.57,5.5-6.8,2.57-.42,6-0.76,4.69-.72,7-0.12,3.77-1.25,11,4.46A14.68,14.68,0,0,1,53.65,78c2.07,1.5,5.06,3.76,5.31,4.54s3.95,4,4.64,7.92,14.73,45.06,14.73,45.06"/><path class="b" d="M51.71,76.83c-0.56,0-3-3.6-3.65-5.15,0,0,7.09.78,10.77,3.46A37.28,37.28,0,0,1,65.08,81s3.31,1.69,4.16,3.57a22.94,22.94,0,0,0,3.53,4.93c0.7,0.76,3.06,4.39,13.94,4.25,0,0,2.81-3.23,5.34-1.41a49.24,49.24,0,0,1,5.67,5.2s2.24,3.4,2.34,6.21,3,12.69,2.95,14.49-4.16,13.26-4.16,13.26"/><path class="b" d="M96.25,131.42s3.65-8.39,3.33-14.67-1.18-12-2.12-13.28-5.58-5.87-7.34-11.76c0,0-.53,11.07-2.1,14.65s-4.69,5.88-4.13,15.2"/><path class="b" d="M97.72,97.52S92,88.17,88,86.4a53.77,53.77,0,0,1-9.95-5.73c-3-2.15-2.87-1.92-4-1.89a16.22,16.22,0,0,0-3.57.68A13.9,13.9,0,0,0,66,81.63a8.61,8.61,0,0,1-2.36-5.25c-0.1-3-1.23-21.84-4.37-25.27s-6.34-8.54-8.51-23.28A7.91,7.91,0,0,0,44.61,20s-2.24-1.61,1.48-1.06a6.81,6.81,0,0,0,2,.44c1.35,0.12-1-1,.3-1.19a6.4,6.4,0,0,0,2.8-1.78L51,13.85S51.54,0.37,52.72.5s2.6,2.27,2.6,2.27,3.8,8,4.32,8.61,2.58,6.65,3.62,7.79,2.78,2.6,2.82,3.78,2.08,2,2.59,2.1,1.42,2.14,1.94,2.63,2.36,0.26,2.57,1.43-1.05,9-1.05,9-2.33,11-2.64,11.87a8,8,0,0,0-.57,3c0,1.18-.6,2.21-0.39,3.38s0.26,2.68.5,5,0.56,6.71.65,9.4,0.5,8.45.79,8.72"/><path class="b" d="M60,83.73l2.82,0.58a6.35,6.35,0,0,0,1.27,1.08c0.34,0.1,2.07,1.5,2.52,1.6a16.34,16.34,0,0,1,3.22,2.36,13.66,13.66,0,0,0,12.6,4.3"/><path class="b" d="M103.92,126.71s6.64-17.16,6.55-19.85,7.35-15.16,13-20.06,14.15-20,14.15-20,0.55-3.61,1.45-3.53,0.77-3.84.77-3.84l0.59-2.6s-7.73,3.85-8.58,5.11-5.56,8.15-6.07,10-1.58,4.71-2.15,4.61"/><path class="b" d="M103,118.21l7.1-19.42s4.22-8.1,6.18-10,8.89-9.38,7.44-16c0,0,4.65-12,7.17-13.92s5.74-6.36,9.43-6.48,6-.42,6.33-2.12,1.4-5.21,1.4-5.21l-0.53-2.45c-0.75.92-2.08,1.42-2.32,1s0.63-1.37,1.18-1.5-2.61-.92-2.61-0.92-9.27-2.27-15.21,4.88S119.42,55,119,55.2s-2.84,2.45-3,4-5,16.21-5,16.21l-3.3,12.34a11.62,11.62,0,0,1-.17,5.05c-0.68,3.28-3.15,6.5-3.07,9.08s-1.86,15-1.86,15"/><path class="b" d="M69.21,80.29s-2-11.49-2.58-13.49,0.69,0.54-.63-2a17.33,17.33,0,0,1-1.85-5.1c-0.26-1.23-3.21-5.39-3.21-5.39L60,52.77"/><path class="b" d="M66.63,87s9.07,23.26,9.94,42.87"/><path class="b" d="M79,93.88l0.37,11.21c0.06,1.79-.18,15,0.26,17.94s0.13,7.4.38,8.07,2.2,4.58,2.2,4.58"/><path class="b" d="M78.09,80.67s-3.59-13.46-9-16.87"/><path class="b" d="M62.72,63.9c-1.57.05-2.05-1.05-3.4-1s-4.15-.09-5.72,0-4.3-1-4.88-1.75-2.92-3.61-3.33-2.25,1.65,5.89-.23,6.51,1.52,1.75,1.52,1.75L49.93,67a6.7,6.7,0,0,1,4.52,1.08C55.94,69.17,63,74.32,64.23,79"/><line class="b" x1="70.44" y1="90.23" x2="75.85" y2="121.58"/><path class="b" d="M79.44,121.63c0.92,0,1-1.46,2-.74s1.3,1.05,2.46.68,3.29,0.23,4.14.54,4.52-.82,4.8.18a37.39,37.39,0,0,0,2,4,12.8,12.8,0,0,1,1.49,4.33"/><path class="b" d="M89.88,129.36a9.35,9.35,0,0,0,2.28-4.79c0.57-3.13,1.26,0,1.23-.88l6.19-6.94"/><path class="b" d="M98,127.07s-3-2.26.8-3.9"/><path class="b" d="M110.48,106.13s11.26-13.08,12.23-14.37,6.41-9.89,5.47-10.11"/><path class="b" d="M108.68,125.54s5.36-5.73,7.76-7.07,1.93-2.76,4.22-4.68,2.3-4.11,3.93-5.85,7.05-8.14,7.56-10.52,3.3-7.09,7.43-11.94,8.21-16.26,6.16-17.2c0,0,0,2.27-1,2.22s2.32-1,1-1.63-3.77-7.11-3.91-6.18-4.26,3.51-4.26,3.51"/><path class="b" d="M102.72,44.37S98.59,49.3,98,50.84s-3.8,7.36-3.72,9.55-1.78,7.13-2,9.49-3,5.65-2.92,8.34A77.71,77.71,0,0,0,90.11,88"/><path class="b" d="M86.34,121.74s-1.52-5.17-.07-7.23A41.08,41.08,0,0,0,92,104.89l2.34-5.46"/><path class="b" d="M96.05,94.66s1.34-10.31,1.26-12.83,0.71-3.89,1.37-4.42,1.13-6.43,2.29-7,4.79-2.85,4.74-4.36c0-.76.15-1.73,0.21-2.59a2,2,0,0,0-.53-1.94c-1-.64-3.36-10.15-2.94-12.52s0.08-7.91,1.85-10.33,4.53-5.53,4.53-5.53,8.87-6.52,9.37-6.7,2-.91,1.09,2.32-5.05,5-6.47,8-5.74,9.61-5.65,12.47-1.39,14-1.39,14"/><path class="b" d="M58.72,146.66c1.25,0.46-2.63.14-2.63,0.14L53,145.39c0,0.13-.52-0.57,1.26-2.57,0.9-1,2-.4,2.51-0.42"/><path class="b" d="M93,147.26c-7.14,1.25-26.75.15-26.75,0.15s-1.77.68-1.68,3.37,1.73,55.81,1.73,55.81"/><path class="b" d="M107.84,145.88s8.6-1.13,9.2-1.65a1.05,1.05,0,0,0,.34-1.53l-0.3-.72s0.41-1.3-.43-1.28-2.35.25-2.35,0.25h-1.35c-1.23,0-1.77-.84-2.27-0.93a6.11,6.11,0,0,0-1.12-.08l-0.67,0"/><path class="b" d="M117.21,140.91a2.25,2.25,0,0,1,1.76,2.41c-0.27,1.92-.6,8.94-0.6,8.94L119,198.8s-3.34,7.63-26.65,8.28-31.23-1.21-31.23-1.21-10.94-1.88-10.88-6.6-1.61-52.12-1.61-52.12a5.21,5.21,0,0,1,1.49-2.52c3.26-3.25,5.63-2.5,5.63-2.5"/><path class="b" d="M56.09,146.8s-1.76-.5-1.56,2.07,1.61,55.48,1.61,55.48"/><path class="b" d="M78.28,147.75a1.26,1.26,0,0,0-1,1.15c0,0.9,1.59,58.29,1.59,58.29"/><path class="b" d="M90.62,147.57s0.79,0.09.92,4.12,0.82,55.4.82,55.4"/><line class="b" x1="103.94" y1="153.52" x2="105.32" y2="205.65"/><path class="b" d="M112.64,145.16s1.34,0,1.42,2.08,0.7,55.29.7,55.29"/><path class="b" d="M118.77,184.67s-10.45,6.29-26.7,6.72a254.8,254.8,0,0,1-26.38-.48s-13.17-1.25-15.86-4.64"/><path class="b" d="M118.66,171.32s-8.26,4.76-27,5.15-26.6-.24-26.6-0.24-15-.29-15.61-3.75"/><path class="b" d="M118.54,157.3s-4.36,4-26.76,4.92-39.27.06-43-4.19"/><line class="b" x1="84.97" y1="141.3" x2="87" y2="141.66"/><line class="b" x1="86.93" y1="144.52" x2="87.45" y2="145.09"/><line class="b" x1="88.81" y1="145.47" x2="89.51" y2="146.37"/><line class="b" x1="87.75" y1="146.43" x2="88.68" y2="146.65"/><line class="b" x1="74" y1="145.62" x2="75.88" y2="146.48"/><line class="b" x1="70.64" y1="145.73" x2="71.09" y2="146.39"/><line class="b" x1="71.28" y1="144.62" x2="71.8" y2="145.1"/><line class="b" x1="55.16" y1="143.3" x2="56.03" y2="144.11"/><line class="b" x1="53.19" y1="144.62" x2="54.46" y2="144.83"/><line class="b" x1="56.08" y1="145.62" x2="56.77" y2="146.02"/><line class="b" x1="56.97" y1="144.33" x2="57.47" y2="144.23"/><line class="b" x1="72.85" y1="146.33" x2="74.04" y2="146.71"/><line class="b" x1="84.33" y1="147.38" x2="85.14" y2="146.6"/><line class="b" x1="81.2" y1="146.81" x2="82.63" y2="146.77"/><line class="b" x1="84.16" y1="139.73" x2="84.27" y2="140.4"/><line class="b" x1="85.7" y1="140.35" x2="86.62" y2="140.32"/><line class="b" x1="86.35" y1="142.44" x2="86.38" y2="143.36"/><line class="b" x1="90.18" y1="146.26" x2="90.71" y2="147.09"/><line class="b" x1="109.54" y1="141.33" x2="111.31" y2="141.28"/><line class="b" x1="112.01" y1="142.26" x2="112.15" y2="143.77"/><line class="b" x1="113.78" y1="142.29" x2="115.46" y2="142.23"/><line class="b" x1="114.69" y1="144.53" x2="116.03" y2="144.15"/><line class="b" x1="116.44" y1="141.19" x2="116.49" y2="142.7"/><line class="b" x1="114.57" y1="143.19" x2="115.66" y2="143.15"/><line class="b" x1="111.41" y1="144.39" x2="112.18" y2="144.95"/><line class="b" x1="108.89" y1="144.72" x2="108.96" y2="144.21"/><line class="b" x1="108.96" y1="141.69" x2="109.84" y2="142.84"/><line class="b" x1="110.59" y1="145.09" x2="111.03" y2="143.22"/><line class="b" x1="110.89" y1="141.37" x2="110.59" y2="142.48"/><line class="b" x1="109.5" y1="140.16" x2="109.97" y2="141.66"/><line class="b" x1="113.24" y1="141.3" x2="112.94" y2="142.4"/><line class="b" x1="113.42" y1="144.07" x2="114.43" y2="144.29"/><line class="b" x1="79.17" y1="146.46" x2="79.18" y2="147.05"/><line class="b" x1="68.13" y1="146.15" x2="68.82" y2="146.46"/><line class="b" x1="72.04" y1="147.28" x2="72.54" y2="147.18"/><line class="b" x1="72.54" y1="144.57" x2="72.63" y2="144.91"/><line class="b" x1="55.46" y1="144.55" x2="55.15" y2="145.32"/><line class="b" x1="54.47" y1="142.73" x2="54.49" y2="143.24"/><line class="b" x1="56.75" y1="145.52" x2="57.93" y2="145.48"/><line class="b" x1="71.85" y1="146.7" x2="72.21" y2="144.75"/></svg>