<svg xmlns="http://www.w3.org/2000/svg" viewBox="0 0 459.1 381.93"><defs><style>.a{fill:none;}.a,.b,.c,.d,.e,.f,.g,.h,.i,.j,.k{stroke:#000;stroke-miterlimit:10;}.b{fill:#323339;}.c{fill:#fbf7ef;}.d{fill:#9e9e9e;}.e{fill:#e48d36;}.f{fill:#45754c;}.g{fill:#5e9e6a;}.h{fill:#77c480;}.i{fill:#8fcd95;}.j{fill:#395b3d;}.k{fill:#457547;}</style></defs><title>plants</title><line class="a" x1="35" y1="302.23" x2="0.5" y2="342.15"/><line class="a" x1="66.88" y1="301.81" x2="13.19" y2="381.65"/><line class="a" x1="97" y1="302.23" x2="67.49" y2="381.65"/><line class="a" x1="131" y1="302.23" x2="116" y2="381.65"/><line class="a" x1="160.5" y1="302.23" x2="152.18" y2="381.65"/><line class="a" x1="190.25" y1="302.23" x2="185.13" y2="381.65"/><line class="a" x1="223" y1="302.23" x2="220.29" y2="381.65"/><line class="a" x1="246.5" y1="302.23" x2="261.88" y2="381.65"/><line class="a" x1="278.58" y1="302.23" x2="298.52" y2="381.65"/><line class="a" x1="306.26" y1="303.2" x2="331.73" y2="381.65"/><line class="a" x1="424.47" y1="302.23" x2="445.45" y2="381.65"/><line class="a" x1="379.54" y1="302.23" x2="401.14" y2="381.65"/><line class="a" x1="340.37" y1="302.23" x2="366.43" y2="381.65"/><line class="a" x1="0.5" y1="317.65" x2="457.5" y2="317.65"/><line class="a" x1="0.5" y1="359.65" x2="457.5" y2="359.65"/><line class="a" x1="0.5" y1="339.15" x2="458.6" y2="339.15"/><polygon class="b" points="435.75 375.53 412.5 324.7 231 324.7 32.35 321.98 0.5 358.78 0.5 375.53 435.75 375.53"/><path class="c" d="M194.58,389.12l16.17-5.83-17-5.1s-3.5-1.25,2.75-2.75,19-4.75,19-4.75l-16-6.53a86.31,86.31,0,0,0,9.28-1.22c8-1.25,10-3.4,10-3.4l-15.22-4.85s-6.5-1.75-1.25-2.25,16.5-4.25,15.5-4.25S205,343.94,205,343.94s-2-1.5,3.75-2.5a98,98,0,0,0,12.5-3.31l-33-.45c0.75,0,12.74,3.76,12.74,3.76s3,2.5,0,3.25-15.65,2.66-15.65,2.66l9.9,4.09s5.2,2,3.41,2.26-16.06,4.92-16.06,4.92,13.63,2.85,13.63,4.6-0.12,1.12-1.62,1.65-16.35,4.57-16.35,4.57l12.5,5.5s1.5,2-.75,2.75-18.79,4.15-18.79,4.15l10.79,6.1-2.15,1.18h14.75Z" transform="translate(0.5 -13.35)"/><path class="c" d="M375.58,338.62l34.5-.33s-13.58,4.42-13.75,5.25a3.32,3.32,0,0,0,.17,1.67L414.74,349,400,353.37s-0.5,1.58.67,2.08,18,5,18,5L405.58,365s-1.33,1,2,2.5,18.33,5.25,18.08,5.25-15,5.25-15,5.25-3.42,1.67.92,2.5,18,4.92,18,4.92-9.92,3.67-10.17,3.67H404.66l-13.5-4.33L406.74,380s2-.92-1.33-2.17-20-5.33-20-5.33l17.17-5.67s1.42-1.75-.42-2-19.33-4.75-19.33-4.75l15-4.33s0.92-1.83-1.33-2.25-17.83-4.17-17.83-4.17L393.08,345s0.83-2-1.83-1.92S375.58,338.62,375.58,338.62Z" transform="translate(0.5 -13.35)"/><path class="c" d="M336.08,338.62l34.5-.33s-13.58,4.42-13.75,5.25a3.32,3.32,0,0,0,.17,1.67L375.24,349l-14.75,4.42s-0.5,1.58.67,2.08,18,5,18,5L366.08,365s-1.33,1,2,2.5,18.33,5.25,18.08,5.25-15,5.25-15,5.25-3.42,1.67.92,2.5,18,4.92,18,4.92-9.92,3.67-10.17,3.67H365.16l-13.5-4.33L367.24,380s2-.92-1.33-2.17-20-5.33-20-5.33l17.17-5.67s1.42-1.75-.42-2-19.33-4.75-19.33-4.75l15-4.33s0.92-1.83-1.33-2.25-17.83-4.17-17.83-4.17L353.58,345s0.83-2-1.83-1.92S336.08,338.62,336.08,338.62Z" transform="translate(0.5 -13.35)"/><path class="c" d="M334,338.29s-14.08,4.67-14.33,5.17-1,2.17,1.17,2.08,16.08,2.92,16.08,2.92L320.74,353s-1.67,1.33,1.83,2.08,16.75,4.67,16.75,4.67l-17.25,4.92s-3.92,1.25.5,2.25,18.08,4.33,18.08,4.33l-16.92,6.08s-3.08.42,0.92,1.75,18.75,4.17,18.75,4.17l-15.67,5.42-11.67.42-13.25-5L319,379.21s1.75-2.33-.92-2.42-15.25-5.17-15.25-5.17L317.74,367s2.25-1.92-.92-2.75-15.67-4.75-15.67-4.75l16-4.42a1.36,1.36,0,0,0-.92-2.33l-15.75-3.33,15.17-4.08s0-1.17-2.83-1.92-13-5.17-13-5.17H334Z" transform="translate(0.5 -13.35)"/><path class="c" d="M297.91,338.29l-17,4.67s-1.5,1.67.83,2.33,13,3.5,13,3.5L280.43,353s-2.81,1.17,0,2,17.47,4.5,17.47,4.5l-16.17,4.25s-2.83,1.58-.17,2.25,17.5,5.33,17.5,5.33l-17.83,5s-1.67,1.33,1.67,2.33,16.17,5.67,16.17,5.67l-15.17,4.83h-8.67l-15.17-5.67,18.67-4.5s1.67-1.33-1.33-2.67S260.08,371,260.08,371l18.33-4.83s3-1-3-2.42-13.83-4.25-13.83-4.25l16.33-4.5s0.83-2.17-2-2.5-13.17-3.67-13.17-3.67l15.83-3.5s0-2.5-3.33-2.67-12.5-4.33-12.5-4.33h35.17Z" transform="translate(0.5 -13.35)"/><path class="c" d="M258.16,338.29l-17,4.67s-1.5,1.67.83,2.33,13,3.5,13,3.5L240.68,353s-2.81,1.17,0,2,17.47,4.5,17.47,4.5L242,363.71s-2.83,1.58-.17,2.25,17.5,5.33,17.5,5.33l-17.83,5s-1.67,1.33,1.67,2.33,16.17,5.67,16.17,5.67l-15.17,4.83h-8.67l-19.58-5.67L239,379s1.67-1.33-1.33-2.67S220.33,371,220.33,371l18.33-4.83s3-1-3-2.42-13.83-4.25-13.83-4.25l16.33-4.5s0.83-2.17-2-2.5S223,348.79,223,348.79l15.83-3.5s0-2.5-3.33-2.67-12.5-4.33-12.5-4.33h35.17Z" transform="translate(0.5 -13.35)"/><path class="c" d="M37.33,335.63L47.7,339.5s2.75,1.63-1.37,2.38S28.7,344.5,28.7,344.5l11.38,4.38s2.63,2.13-.87,2.5-18.87,0-18.87,0l12.5,8.5s0.75,0.25-2.75,1.38-18.87,4.5-18.87,4.5l11.63,4s1.88,1.63-.12,2.25-21.63,5.75-21.63,5.75,11.63,4.75,11,5.75-1,1.63-1,1.63l-10,2.38v1.63l20.75-.62-7.75-3.75s-2.37-.87,11.5-3.5,13.25-3,13.25-3l-14-6.37s-0.39-1.75,2.86-1.87,18.75-3.37,18.75-3.37-10.75-4.5-11-4.87-1.87-2.37,1.63-2.87S51.2,356.5,51.2,356.5l3-.87s-10.62-2.87-11-4.12,0.13-2.62,1.63-2.25,17.75-3.87,17.75-3.87l-11.5-3.5s-0.62-1.75,1.13-1.87,15.63-3.95,15.63-3.95Z" transform="translate(0.5 -13.35)"/><path class="c" d="M72.34,336.11c0.75,0,12.74,3.76,12.74,3.76s3,2.5,0,3.25-17.25,2-17.25,2l11.5,4.75s-0.42,3-2.21,3.25-17,1.75-17,1.75,11.5,3.75,11.5,5.5-1.5,1.45-3,2-16.25,3.53-16.25,3.53l12.5,5.5s1.5,2-.75,2.75-20.5,4.5-20.5,4.5l12.5,5.75c-2.75,3.25-8.5,4.75-8.5,4.75H61.83s-5.25-2.75-1.25-4,20.25-6,20.25-6l-13-4.5s-3.5-1.25,2.75-2.75,19-4.75,19-4.75l-14-4.51s-0.75-2,7.25-3.24a67.51,67.51,0,0,0,12-2.75l-12.25-4.5s-1.5-1.75,3.75-2.25,16.5-3.25,15.5-3.25-12.75-4.25-12.75-4.25-2-1.5,3.75-2.5a98,98,0,0,0,12.5-3.31Z" transform="translate(0.5 -13.35)"/><path class="c" d="M115.35,337.2c0.75,0,12.74,3.76,12.74,3.76s3,2.5,0,3.25-17.25,2-17.25,2l11.5,4.75s-0.42,3-2.21,3.25-17,1.75-17,1.75,11.5,3.75,11.5,5.5-1.5,1.45-3,2S95.34,367,95.34,367l12.5,5.5s1.5,2-.75,2.75-20.5,4.5-20.5,4.5l12.5,5.75c-2.75,3.25-8.5,3.66-8.5,3.66h14.25s-5.25-1.66-1.25-2.91,20.25-6,20.25-6l-13-4.5s-3.5-1.25,2.75-2.75,19-4.75,19-4.75l-14-4.51s-0.75-2,7.25-3.24a67.51,67.51,0,0,0,12-2.75l-12.25-4.5s-1.5-1.75,3.75-2.25,15.5-3.25,14.5-3.25-11.75-4.25-11.75-4.25-2-1.5,3.75-2.5a98,98,0,0,0,12.5-3.31Z" transform="translate(0.5 -13.35)"/><path class="c" d="M151.84,337.75c0.75,0,12.74,3.76,12.74,3.76s3,2.5,0,3.25-16.23,3.7-16.23,3.7l10.48,3.05s1.79,2.12,0,2.37-14.25,2.63-14.25,2.63,11.5,3.75,11.5,5.5-1.5,1.45-3,2-16.25,3.53-16.25,3.53l12.5,5.5s1.5,2-.75,2.75-20.5,4.5-20.5,4.5l12.5,5.75c-2.75,3.25-8.5,2.66-8.5,2.66h14.25s-5.25-.66-1.25-1.91,20.25-6,20.25-6l-13-4.5s-3.5-1.25,2.75-2.75,19-4.75,19-4.75l-14-4.51s-0.75-2,7.25-3.24a67.51,67.51,0,0,0,12-2.75l-12.25-4.5s-6.5-1.75-1.25-2.25,17.08-4.22,16.08-4.22S168.58,344,168.58,344s-2-1.5,3.75-2.5a98,98,0,0,0,12.5-3.31Z" transform="translate(0.5 -13.35)"/><line class="a" x1="0.5" y1="302.23" x2="457.5" y2="302.23"/><polygon class="a" points="168.67 244.31 457.5 244.31 457.5 251.31 166.84 249.65 168.67 244.31"/><polygon class="a" points="223.07 227.65 457.5 230.16 457.5 244.31 168.67 244.31 175.5 227.65 223.07 227.65"/><path class="a" d="M208,263.24V334s2.68,2,4.69,0V263.24H208Z" transform="translate(0.5 -13.35)"/><path class="a" d="M212.65,319a4.59,4.59,0,0,0,5.35,0V263.24h-5.35V319Z" transform="translate(0.5 -13.35)"/><line class="a" x1="218.5" y1="258.65" x2="249.17" y2="249.89"/><line class="d" x1="218.5" y1="268.65" x2="262.84" y2="249.89"/><line class="a" x1="431.17" y1="251.16" x2="457.5" y2="260.98"/><line class="a" x1="418.83" y1="251.09" x2="457.5" y2="265.65"/><path class="b" d="M324.21,186.21s-29.09,4.28-25.57,7.32,16.56,5.56,31.37,5,34.82-3.65,34.82-3.65,5-2.75-6.33-5.51S324.21,186.21,324.21,186.21Z" transform="translate(0.5 -13.35)"/><path class="b" d="M364.83,194.85s-8,9.39-9.33,18.39-3.33,20.21-3.34,23,0,6-1.33,8.33-0.31,2.69-3,4.18-32.68,6.18-38.68,0-4.35-35.7-4.67-37.44-0.19-7.24-2.86-9-3-8.79-3-8.79S311.83,204.13,364.83,194.85Z" transform="translate(0.5 -13.35)"/><path class="a" d="M227,189.73c1.1,0,40.16,2.51,50.84-2,0,0,3.34-4.53-13.79-6.36,0,0-31.59-4.89-37.06-1.18s-8.25-1.09-7,2.14S220.65,189.59,227,189.73Z" transform="translate(0.5 -13.35)"/><path class="c" d="M276.6,184.62c0.12,0,11.24-.72,10.24,1.62s-6.33,4.19-6.33,4.19-39.91,6.57-51,2l-11-4.55,1.44-5.56S239.69,172,276.6,184.62Z" transform="translate(0.5 -13.35)"/><path class="e" d="M286.83,186.24s6.33,38.67-10.67,50.67a51.77,51.77,0,0,1-33.31,10.85c-19.69-.85-33.35-7.71-38-31.11l2.66-26.2,11-2.53s53.19,8.44,58.1-3.28C276.6,184.62,286.4,183,286.83,186.24Z" transform="translate(0.5 -13.35)"/><path class="c" d="M323.25,189.34s-18.08,4.87-16.25,4.72,19.83,1.18,26.83.68,23,0.42,21.67-1.21S342,191,338.59,190.43,323.25,189.34,323.25,189.34Z" transform="translate(0.5 -13.35)"/><path class="e" d="M385.85,195.84s-26.5,2.22-14,6.37S424,203.36,424,203.36s11.48-3.12,1.73-5.81a53.81,53.81,0,0,0-10.51-1.67l-5.6-.22Z" transform="translate(0.5 -13.35)"/><path class="c" d="M395.6,196.46s-17.75-2-16.5,1.1,21,5.31,31.5,4.31,11.75-1.18,11.5-2.34,4.5,0.84-.25-1.16-7.75-3.14-9-2.52-3.25-.17-3.25-0.17Z" transform="translate(0.5 -13.35)"/><path class="e" d="M429.63,201.18L424,248.86l-1.37,6.06s-13,7.17-43.56,4.06c0,0-11.52-55.45-10.35-59.41,0,0,1.1,2.68,6.24,3.43s41.45,0.84,42.2.8S428.16,204,429.63,201.18Z" transform="translate(0.5 -13.35)"/><path class="a" d="M175,73.36s4.13,19.85,7.25,25.31S201.5,176.5,196.5,183.5l8,1.6s-22.57-95.36-23-106.23S175,73.36,175,73.36Z" transform="translate(0.5 -13.35)"/><path class="c" d="M246,187.74S225.83,122.6,130.17,93.42l-7.42,2.68S202,102.74,246,187.74Z" transform="translate(0.5 -13.35)"/><path class="c" d="M233.47,184.57s-58.26-13.48-75.78,13.93l-4.06-5.93s25.82-21.3,79.85-11.32v3.32Z" transform="translate(0.5 -13.35)"/><path class="c" d="M163.26,192.12s-14.14,36.37-6.76,46.62l-2.87,2.5s-6.41-19.15,4.06-42.74,2.48-15.93,3.48-15.93S163.26,192.12,163.26,192.12Z" transform="translate(0.5 -13.35)"/><path class="c" d="M231.47,202.32s1.94-22.08,5.32-16.75l2.46,3S236.1,182.74,231.47,202.32Z" transform="translate(0.5 -13.35)"/><path class="c" d="M210.5,195.74s4.83-37.55,28.75-14.36v7.16s-6.58-13-11.67-11.64S219.33,172.74,210.5,195.74Z" transform="translate(0.5 -13.35)"/><path class="c" d="M168,134.49c-7.29-.51-3.17-6.58-3.17-6.58s49.67,2.67,81.17,59.83l-3.89.81S218.95,138,168,134.49Z" transform="translate(0.5 -13.35)"/><path class="c" d="M250.14,187.74s14-43.17,24-43.5v2.67s-19,28.2-20.17,42.43Z" transform="translate(0.5 -13.35)"/><path class="c" d="M265.87,53.1s-23.92,93.7-23,127.1l2,4.58S261.33,60.74,269.25,53,265.87,53.1,265.87,53.1Z" transform="translate(0.5 -13.35)"/><path class="c" d="M259.66,43.85c-0.12.16-32.66,104.67-20.41,144.7h2.86S230.89,131.91,264,45.24Z" transform="translate(0.5 -13.35)"/><path class="c" d="M295,109.41c0,0.67,16.67,32,19.33,37.5s7.17,9,8.92,23.33,0,1.83,0,1.83,0.31,3.74.78,6.29-0.14,1.58,0,4,1.06,0.84.18,3.87a8.86,8.86,0,0,0,.37,5.7L324,194.74s5.17,1.14,6.67-.68,0-4.72,0-4.72L330,184.62s1-5.75,0-6.27-6.13-20-5-22,12.5-24,14.5-22-4.75-5.17-4.75-5.17-8.08,15.5-9.92,19.5-1.5,7.83-2.5,4.33-6.56-13.67-6.56-13.67-11.58-32.21-12.51-34.11-4.8.11-5.37,0.61S295,109.41,295,109.41Z" transform="translate(0.5 -13.35)"/><path class="f" d="M395.6,199.52s37.5-62.66,53.5-117.16l9-25.67a307,307,0,0,1-7.75,34.92c-5.25,18.25-39.25,97.75-39.25,97.75s-1.75,3.95.5,7.1,3.5,3.06,3.5,3.06H395.6Z" transform="translate(0.5 -13.35)"/><path class="f" d="M402.56,187.36s-6-41-7-42.5c-0.34-.51-1.54-3.68-3.91-7.66-4.61-7.77-13.65-18.62-29.34-18.91l2,7.07s13-3.25,21.25,12.75c0,0,10,11.94,10,36.67v24.74Z" transform="translate(0.5 -13.35)"/><path class="g" d="M401.73,181.73s1.87,0.63,7.87-12.62,19.75-48,20.5-52.25,4.71-26.53,3.5-31.82c-1.34-5.88-1-14.41,2.25,2.08s-9.66,54-9.66,54l-23.64,46.23Z" transform="translate(0.5 -13.35)"/><path class="g" d="M391.69,137.2s-26-50.8-43.25-60.84c0,0-5.6-4.75-6.85-5.5s-0.25-3.25,9,3.87,34,35.3,34,35.3,14.75,21.33,15.25,25.33,6.23,40.88,6.23,40.88l-4.35,5.49s-4.84-34.15-6.13-36.87S391.69,137.2,391.69,137.2Z" transform="translate(0.5 -13.35)"/><path class="h" d="M404.68,167.21c0.22,1.43,15.42-35.22,16.42-40.66,0.45-2.47,1-6.11,1.49-9.34,0.57-3.88,1-7.18,1-7.18s3.75-10.42,1.25,6.33-5.54,29.56-5.54,29.56l-13.23,30.32Z" transform="translate(0.5 -13.35)"/><path class="h" d="M387.37,114.1s-11.13-31.6-9.27-28.6a167.15,167.15,0,0,1,12.25,25.74c1.75,5.37,11.5,24,13,31.16s2.73,22.3,2.73,22.3l-1.4,2.51s-3.53-23-3.8-24.81S393.14,119.34,387.37,114.1Z" transform="translate(0.5 -13.35)"/><path class="g" d="M319.5,127.91s2.25,2.08,0,5.33,0,7.34,0,7.34,3.5-1.74,3.75-2.92,3.25-5.93,3.25-5.93l2,3.55v5.3s-3.75-2.41-5,0,0,3.66,0,3.66l3.75,2,1.25,2.5,5.25-3.5s0.5,1.75,0-3.25,0.22-6.7.22-6.7,1.28-5,2.78,0,1.25,3,1.25,3,4.5,4.08,5,0,1.25,0.67.5-4.08-0.5-.75-0.75-4.75,1.25,1.5-.25-4L341,120s-0.75-1-5.25,1.5-0.25,3.75-4.5,2.5-2.75,3-4.25-1.25-1.5-2.95-1.5-2.95L326,114h10.25l7.57-5.75a12.09,12.09,0,0,0,1.43-3.19l0.5-1.81s4.25-1.7,5.75-5.22,0-3.53,0-3.53l-3.65,1.61L341.75,98s-1,5-2.25,2,3.75-10,1.25-6.5-7,2.61-7,2.61h-4.36L307,98s2.25-3.31-1.5-1.92c0,0-6.92-.92-2.24,9.2s5.24,11.93,5.24,11.93,5.3,4.74,4.78,5.3-3,.2-1.53,1.83l1.5,1.63s2.29,1,2.52,3l0.23,2Z" transform="translate(0.5 -13.35)"/><path class="i" d="M347.85,125.81s-4.65.43,0,3.68,5.9,2,5.9,2,0.25,2.34,3.25,3.8,4.75,6.2,3,1.45L358.25,132l-1.75-5-3.26-1.18-1.07-6.07,1.07-3.54,2.76-3.71s4-5.39,2.75-7.44,3.75-8.81-1.25-2.06-7,6.25-7,6.25l-6.68-1-13.32-.75-14,6.5,6.76,11.82,11.5,3.43s7.9-9.57,10.5-6.5Z" transform="translate(0.5 -13.35)"/><path class="j" d="M362.75,140.58l6.5,1.16s5.5,1.93,3.5-1.16-3.25-5.3-3.25-5.3l1-2.8,6-4.58s5-1.83,6,0-1.25-4.42-1.25-4.42-8.5-5.84-11.5-7.29-3.5-3-2.5-4.71a15.13,15.13,0,0,1,3.25-3.5l6.25-1.75,3.5-1.19-4.75-5h-7.75l-5-4,3.75-3.57,2-2.31-4-3.73-3-3.39s-10.42-6.37-9.33-.87l1.08,5.5-2.75.07H346s1.75,0.4-4.75,2.41S336,91,336,91l-7.75,2.4L339.5,100l4.32,8.25s3.18,1-1.07,4.5-4.32,2.48-5.78,4.49-2.72,2.26-4.22,4.51l-1.5,2.25L331,131s4.18-4.75,6-4,10.88-7.56,10.88-7.56l4.32,3.56v4.92l7.83,8.83Z" transform="translate(0.5 -13.35)"/><path class="k" d="M303.26,105.3c-7-2.31-14.45,0-14.45,0s-2.42,6.52-9.06-2.39S275,89.26,275,89.26s4,2.47,3.72-6.15-5-1.12-.25-8.62,0.25,2.5,4.75-7.5-4.67-6,1.92-7.5S291.88,55,291.88,55L297,65l15-15.42s7.29-2.33,3.77,4.17,0,8.58,0,8.58h7.48s0,1.92-4.25,5.3-7.82-1.93-4.25,3.38-3.58,5.18,3.57,5.31,10.61-8.68,7.15.13-1,11.38-1,11.38,9.3,2.36,3.75,5.61l-5.55,3.25Z" transform="translate(0.5 -13.35)"/><path class="g" d="M130.17,96.24V85.91s7.67-11.33,7.67-12.67V67.57L137,65.24s-1-1.67-.67-5.33V57.24s-1-.67-2.33,1.83a69.31,69.31,0,0,1-3.83,6s3.33-4.17,3-9.17-1.33-5.5-1.33-5.5l-1.67.83-1.5,3.83-1.5,2.83-0.67-2.83c-1.33-2-1.5-2.33-2.67-3s-1-.83-0.83-1.67-1.17-1.5-1.17-1.5l-3.17-1.5s-0.83.33-.67,2a20.16,20.16,0,0,1,0,3.5s2.19-.67,1.86,1.5-1.67-1.33-.33,2.17,1,4.5,1,4.5a3.64,3.64,0,0,0,0,2.67l-0.17,1.83-1.67-.67s-0.21,1-.69-1.67l-0.48-2.67s0-3.67-1.33-2.67l-1.33,1h0a37.66,37.66,0,0,0-3.17-5.17c-1.67-2.17-2.83-2.5-2.83-2.5-1.67.5-3.17,0.67-2.5,1.83s2,3.83,2.5,4.67,2.5,4.83,2.5,4.83l1.83,2.83-2.83-1s-1,.5,1.67,2.83,6.67,6.17,6.67,6.17a6.59,6.59,0,0,1,.5,2.17v3.17l-8.67-6.92c-2.17-1.92-3.67-1.25-3.33-1.92s-1.67,1.92-1.67,1.92a22.71,22.71,0,0,0-5-.75c-1.33.17-2.33-.17-2.67,0.75a3.28,3.28,0,0,0,0,1.92s-0.5-1.33,2.33.17a36.47,36.47,0,0,0,5.5,2.33L108,78.91c2.17,2-1,3.33,1.17,2.67a28,28,0,0,1,3.17-.83l2.5-.33a4.23,4.23,0,0,1,1.17,2c0.5,1.5,4,4,2.67,4.67s-2,1.5-3.67-.5-2-2.67-2.67-1.67l-0.67,1s0.5,0.67-2.17-.33-2.33,2.33-4.33-1.17l-2-3.5s0.33-.67-1.17.67-1.17.17-1.5,1.33l-0.33,1.17S87,83.41,86.33,82.91a15.26,15.26,0,0,0-2.17-1.17c-1.67,2,1.83,3,3.33,3.83s6.67,1.33,7,2.83,2,0.83,2.5.67a5.3,5.3,0,0,0,1.5-.5,6,6,0,0,1,2.33-.17s1.67-1,2,.67,1.5,1.33,1.5,1.33a4.14,4.14,0,0,1,1.83-.83,12.49,12.49,0,0,1,2.67-.33s1.39,1.83,1.95,1l0.55-.83,1,0.5s0.33,1.83-.83,2.33-3.83-1.17-5.83,0a24.38,24.38,0,0,1-3.33,1.67s-0.67-.5-3.5.5-0.67-2.33-4.67.67S89,98.74,89,98.74s-4.83.5,1.17-.67a47.55,47.55,0,0,1,10-1l2.17-.5,2.67-.17s-0.17.33-3,1.67-5.17,2-6,3.17a23.91,23.91,0,0,1-3,3s-2,2.33-4.5,1.33a11.67,11.67,0,0,0-3.83-1s-9.67-3.5-11.17-6-3-2.17-3-2.17a20.48,20.48,0,0,0-2.17-.33c-0.5,0-.5,2.33-2-0.17a10.74,10.74,0,0,0-3.67-3.67l-1.17.33v4a3.29,3.29,0,0,1,3.33,1.33c1.33,1.83-.33,2.5,1.33,3.33s5.5,0.83,5.5.83,6.45,1.69,4.83,2.5a11.45,11.45,0,0,1-4.17,1.25l-2.17-1.92s-6-.83-7.17-2.5-1.17.33-1.17,0.33l-2,2.33L61,105.74l2.5,0.08s2.83-.25,2.33,0-1,1.08-4.83,2-4.5,1.75-4.5,1.75l2.5,1.67,5.33-2H68s-1.83,1.33-1.17,2.67a6.17,6.17,0,0,0,2,2.17s1.83,1.17,2.83,1.83a8.82,8.82,0,0,0,2.17,1l2.33-.83s-0.5-.83.5-2.67,3.5-3.83,3.33-.33a15.35,15.35,0,0,1-1.83,6.33l0.33,2.67-1,2.17H80l2.17-1.67a24.43,24.43,0,0,0,3.67-4.33c1.17-2,3.17-4.67,3.17-4.67s1.67-2.83,2.33.33a35.16,35.16,0,0,0,1.17,4.5s-2.83,16.17,4.67,16c0,0,.83-5.17,1.33-5.67s-0.17-2.17-.67-6-2.17-8.5-.67-9,1.33-6,3.33-3v9.5c0,2.83.47,4.55-.83,5.17l-1.3.62,2.3,2.88-1.5,1.5s2,1.17,1.67,4.83,0.5,4,.5,4,4.67,1,5-1.5a19.86,19.86,0,0,1,1.17-4.5,2.22,2.22,0,0,0,.5-3c-1.17-1.67-.67-1.67.33-2s-1-13.5-.83-16.17,0-6,1.83-5.17,3.17,0.17,3.67.33,1.33,1.83.17,3.67-1.5,2.5-1.33,3-0.17-.67.17,0.5,0.67,2.17.67,2.17a7.56,7.56,0,0,1-.83,1.5c-0.5.67-1.67,2.5-1.67,2.5L110,124.91s-1.5.83,0.17,3.17a7.11,7.11,0,0,1,1.17,5s-0.17,3.17,1.83,3.5,3.83,0.67,3.83.67a8.27,8.27,0,0,0-.5-2.33c-0.5-1.5.5-2,.5-2.67s0.33-4.5-.33-5.33-2.17-.17-0.67-0.83l1.5-.67s-3.33-2.33-.83-1.83a8.49,8.49,0,0,1,3.33,1.17s-0.33.17,0.33-2.67a23.35,23.35,0,0,0,.67-4.83s-1.67,4.83-1.5.33,0-4.17.33-6.17a27.92,27.92,0,0,1,.67-3.33c0.67-3,.17-4.17.67-4.67s0-.33,1.5.67a11.84,11.84,0,0,1,2.67,2.67s4.67,2.17,6.83,1.5l2.17-.67s-1.67-3.67-2.17-4-1.67-1.17-1.67-1.17-1.83.83-1.67-.67-1.33,1.17.17-1.5l1.5-2.67Z" transform="translate(0.5 -13.35)"/><path class="g" d="M145.5,139.44l-3.5,3.3a69.37,69.37,0,0,0-8,2.75c-5,2-7.5,4.5-10.25,4.25s-2.5-.5-5.75-1.5-3-.25-5.25-1.5-4,1.78-3.75,3,1,1.23,6.5,3,9.48,3.75,11.74,3l2.26-.75s-4.75.32-10.5,0.91A48.32,48.32,0,0,0,109,158h-2.73s0,2.75,1.5,2.75,4.75,1.25,7.5,1.25,4.5,0.5,7.5,0a29.47,29.47,0,0,0,5-1.25s2.5-2.5-2,.75l-4.5,3.25s-0.75,2.75-5.75,3.75a68.05,68.05,0,0,0-7.25,1.75S106.75,170,105,172s-4.25,4.5,7.5,5h3.75l-4.5,2.75L113,182l-1,3s5.25-3,3.25,0-2.75,2.75-2.25,4.25,9.25-7.75,9-7-0.75-.25-1.25,5,0.25,6.25,1.25,7.25,4-13.5,4.75-14.75,2.25-4,2.25-3,1.25,1.25.75,6.5,0.25,6-.75,8.25a5.33,5.33,0,0,0,0,4.25s1.5,0,3-8.75,3-10.5,2.25-12.5a4.8,4.8,0,0,1-.25-3.25s7.5,2,8.25,4.5a2.81,2.81,0,0,0,3.25,2L143.75,173s-1.86-1-1.25-4.25c1-5.25,1.5-7,1.5-7l3.25,0.75V160s-2,2.5,0-3.75,3-7.75,3-7.75,2.5-4.5,3.25-5,14.5-9,14.5-9l-4.25-2s-13.5,8-15.5,8.75S144.5,141.88,145.5,139.44Z" transform="translate(0.5 -13.35)"/><path class="f" d="M156.5,238.74c0.25-1.75.75-6.25-5.25-8.25l-8-3s8.51-2.5,13.38,4l3.12,5.25L170,222v4.25a11.89,11.89,0,0,0,2.75-4.25c0.5-2,0,2.5,0,4.5s2.25,0.5,3-2.25,1.25,5.25,0,8.25,2.75-2.75,3.5-2.38a3.34,3.34,0,0,1,0,5.13c-2.25,2.25,5.25.5,5.25,0.5s-1.5,3.25-7.25,6-9.5,8.25-13.37,4.25-4.62-5.25-7.87-3.5-0.37,6.32,3.75,4.91c0,0,4.75-1.16,4.13,1.59a32,32,0,0,0-10.37,10c-3.75,6.25-53.75,12.76-54.75,14.51s-2.5.25-4,4-2.75-1.75-1.5-4-2.5.25-3.5,1-4.5,1.75-3.75-1-0.1-1.5-.1-1.5,0.35,5.25-2.65,4,39.5-13.76,39.5-13.76,2-13.23,5.5-14.49,3.75,6.74,4.25,3a18,18,0,0,0-.25-6.5s7.25,1.77,9,3.51,2.75-4-2.25-5.51l-3.25-1.5s-1.5-3.5,2-2.5,5.5,1,6.5,2.25a26.48,26.48,0,0,0,2.5,3c1.25,1.25,6.25,3.25,5.5-1.5S156.5,238.74,156.5,238.74Z" transform="translate(0.5 -13.35)"/><path class="h" d="M179.17,174.91c-1.5.33-1,2.67-4.33,0.83s-5.33-3.17-3.83-4.67,3.17,1,3-3.17,0.5-5-1.33-6.83-4.29-2.21-4.67-1.83a16.39,16.39,0,0,0-3,4c-1,1.5-2.33-5.33,1.17-5.67a22,22,0,0,1,5.36,0s1.3-2.33-2.2-2.83-4.33,0-4.33,0,1.67-2.17-2.33-3.33-3.67.5-4.5,0-0.83-.67-1.33-2.17a8.15,8.15,0,0,0-1.17-2.33,6.7,6.7,0,0,1-2,2.33c-1.29.83-3-1.42-3-1.42a5.86,5.86,0,0,0-4,.76c-1.5,1.17-4.65.89-1.83,3.67s-0.52,3.58,1.82,6-0.15,2.18-.15,2.18l0.67,2.78-3.17-1.5-1.25,10s1.79,3.35,2.27,4.66,0.57,3,0,2.14-2.55,2.34-4.83-1.83a9.81,9.81,0,0,0-6.3-4.89,19.23,19.23,0,0,0,1.88,5.22c1.58,3.17,1.92,3.33,2.92,4s4.67,1.83,5,2.17-3.83,1.33-5.83,0-3.17-1.17-3.17-1.17,1,7,6.33,7.33l-8.33-.67s0.5,5.33,3.08,5.67c0,0-.75-0.5-3.08,1.33s-3.5,1.83-3.5,1.83-2,.33-2.5,0,0,0.17,0,1.5-3.17,1.67-3.92,4.5c0,0,.25,3.33,6.75,0l-1.33,3.17s-2.67-1.33-4.33,0-2.83,1.83-3,2.33l-0.17.5s3.67,6,8.67,3.33a29,29,0,0,1-2.17,5c-1.33,2.33-3,5.17-2.17,5.83s11.83-10.17,11.83-10.17-5,5.33-6.33,7.92-0.5,3.81.83,2.28l1.33-1.53a22.26,22.26,0,0,1-2,5.17,33.82,33.82,0,0,1-2,3.5s1.17,2.33,5-.67,1.5-4.17,4.33-5.67,3.17-6.33,3.17-8.33,0-3.83,1.17-4.17,0.5-1.5,0-3.83-3-9.33.67-5l1,4.67-0.17,1.67,0.5,3,2.17-6.67s0-5.5,1-4.17,2.42,0,2.42,0-1.75-3.67-1.25-5.17,1.67-4.67,2-2.5,1,6,1,6,1.25,5.17,2,5,2-2.17,2-2.17l2.83-3.17a7.59,7.59,0,0,0,1.17-4,10.42,10.42,0,0,1,0-2.33c0.17-1.67-2.33-3.83.17-1.67l2.5,2.17,1.67,3.5,1.33-3.5,1.83-1.83,0.83-2.73,1.67-2.93-0.67-1.5c0.67,1.5.17-1.17,0.17-1.17s-5.17-1.17.17-1.67a24.6,24.6,0,0,0,8-1.83l4-2,3.17-2.5Z" transform="translate(0.5 -13.35)"/><path class="f" d="M217.33,182.91c-0.56,4.53-1.48,9.72-3.5,10-1,.14-1.77-1-4.17-3.83-5.17-6.18-7.79-9.26-9.33-8.83s-2.45,3.69-1.83,6.17c0.76,3,3.74,4.51,3.33,5.17s-2.19-.42-5.83-0.5c-1.32,0-2.81,0-3,.5-0.25.73,2,2.09,2.67,2.5,0,0,5,1,5.67,3s-2,.33-4.33,1.5-2.83,2.33-2.83,2.33l1.5,0.83s5.17-.17,5.83,1,1.17,2,1.17,2-4,1.67-5.5-.67c0,0-2.17,3.83,4.17,4.33,0,0,5-2.67,4.67,0a12.48,12.48,0,0,1-.84,3.67s0.18,0.83-2.16.83-2.33-4.67-2.33,0-2.67,5.67,1,5.83,5-.83,5-0.83-1.83,3.83,1,3.58,3-.75,3.17,1.08,2.17,2.33,3.17,0,4.67-.33,3.33-2.5-3.33-4.67-1.17-3.17,1.67,3,4.33.83,4.5-2.17,3.33-4.83a17.4,17.4,0,0,1-1.33-3.83s1.5,0.83-2-1.33-6.5-2.17-3.5-2.17,3.83,2.83,6,1.33l2.17-1.5s0.17,0.33,0-2.67-1.17-2.67-.17-3,0.67,0.83,3-1.17a26.45,26.45,0,0,0,3-2.83s4.5-3,1.17-2.5a12.5,12.5,0,0,1-4.33.17c-0.67,0-2.17-.17-2.17-0.17s7.29-1.5,7.73-1.5-1.06-3-3.23-2.4H228l-4.17,1.57s6.56-7.49,5.33-7.83c-3-.83-5.83-1.67-7.67.83s-2.83,4.67-3,4C218.5,187.91,217.54,181.2,217.33,182.91Z" transform="translate(0.5 -13.35)"/><path class="i" d="M205.33,93.42c-1.5-.18.33,2.32-4.33,3s-2.33-3.33-5.67,0-3.5,1.17-3.5,1.17,1-6.83-.67-2.83,1,2.17-1.67,4l-2.67,1.83s-3.5,6.83-7.83,8.5-18.17,2.33-21.17,4.17-16.5,7.67-20,10.17-6.67,2.33-10.17,3.33-11.5,1.17-9.17,2.83,4.67,0.17,3.17,2.17l-1.5,2s-2,1.5,2.83,0,8.33-7.5,7.67-2.33-1.67,5.33,1.67,6,1.17,1.83,5.5-.83,3.5-5.5,6.17-4.08,2.67,2.25,2.67,2.25l-1,2.17c3,0.5,2,.33,4.67-1s4.67-4.83,2.67-1.33-0.42,2-.42,2-1.92,3.5,1.08,5.33a18.7,18.7,0,0,0,5.83,2.33l5.33-.67-2.17-1.5s-1-1.36.77-4.76l1.73-3.4,2.83,5a1.63,1.63,0,0,1,1.17,1.5c0,1.17.83-.5,2.33-1.83s0.17-.5,3-2,1.5,2,2.83-1.5h0l1.33-3.5s0.83-5-2-7.5l-2.83-2.5-1.67-3.83,3.17-2.17,4.67,1.17,3-1.17,3.17-1.33s0.17-.83,1.83-1.5-0.83-.83,1.67-0.67,2.67-.83,2.67-0.83-1-4.33,2.33-3.33,5.17-.67,5.17-0.67,4.17,0.17,2.17-1.83-1-4.67,1.83-4.83a49.65,49.65,0,0,0,7.67-1.5l6.17-2a22.62,22.62,0,0,0-7.5,0c-4.5.67,8.83-4.17,2.5-2.33s4.17-7-1.67-2.83,2.67-3.78-1.5-1.13Z" transform="translate(0.5 -13.35)"/><path class="f" d="M177.83,108.74s-7-9.3-1.5-15.32l1.84-2c3.89-4.14,4.66-4.53,4.66-4.53l3.17-.67,4.67,1.17s1-4.17-4-4.67,4.83-4,5.83-5.5,3.83-3.5-1-2.33,2.74-1.67,2.74-1.67,6.1-2.33,2.1-1.5-8.41,1.5-10.37-1.17,0.54-.17-3.46,0-4.17-.17-4.33,2.17-6.17-4.5-7.33-8.17l-1.17-3.67s-1.67,7.67-1,13.33,0.67,3.67-2.17,2,0-1.17-3.67-1.33-3.17.83-5.33-2.33-2.67-4-2.5-2.17,0.33,5.5,5.83,7.5,5.83,2.83,5.83,2.83,5.5,0,.5,2.17l-5,2.17s4.17,1.5-.17,1-8.5-5.33-5.33,0,4.17,5.86,4.17,7.35a8.61,8.61,0,0,0,.33,2.48s2.67,3.33-2.67,1.33-5.92-3-5.92-3l-1.75-.82s-0.83.85-5.5,0-8.33-.71-9.58-3.2-3.58-5.48-2.58-2.32,0.33,5.67,2.58,6.5-0.75,0,2.25.83-6.33-2.33,0,0l6.33,2.33,0.83,0.83s6.83,1.5,1.17,1.67,6.5,0.17-1.5.17-7-.17-7-0.17-11.67-.67-7.17.83,6.17,2.17,6.17,2.17a14.47,14.47,0,0,1,4.33-1.17h1.67s5.33-.17,5,1.5a3.49,3.49,0,0,1-2,2.33s-1.83,1.83-6.67,1.83h-3.42s-12.42.5-15.08-.67-1.17,3.67,1.83,3.67a9.54,9.54,0,0,1,1.8.14c1.31,0.27,1,.86-2,1.36-4,.67-4.25,1.83-4.25,1.83s17.59-5.67,22.42-1.5,6.17,4,6.83,4.83,2.45,0,2.45,0,9.09-4.48,9.72-4.65,9.55-1.64,9.55-1.64l1.59-.22Z" transform="translate(0.5 -13.35)"/><path class="c" d="M186.83,100.57V93.42s-1.5-.17-3,3.58-0.83.74-1.33-2.09-0.17-4.67-2-3.33-2.67-1.5-1.83,1.33,2,2.83,1,5.17-1,3.17-2.17.67-1-3.9-2-2.89a6.53,6.53,0,0,0-1.27,3.22s1.77,8.34,3.61,9.67S186.83,100.57,186.83,100.57Z" transform="translate(0.5 -13.35)"/><path class="c" d="M156.45,74.91s-2.11,6-3.86,2.66-2.58-7.5-2.75-5.17-2.75,3.5,0,4.33,0.83,1-2.33,1.84-2.83,0,2.67,2,6.5,0.5,2.42,2-8.42,2.67-4.42,2.5,8.28,2.83,8.28,2.83-1-4.46-.63-4.31,5,2.23,5,2.23l7.06-3.25s3.6-1,1.19-1.43-3.4-.08-7.23-1.33A9.54,9.54,0,0,1,156.45,74.91Z" transform="translate(0.5 -13.35)"/><path class="g" d="M208.5,150.07c0.33-.67,4.5-0.83,3.67-8.5a75.62,75.62,0,0,0-1.78-11s-0.34-4.5,1.89-3.67,5.56-1.83,7.06-1.33,6.17,0,6.67-1.33,0.67-2.83,1-3.67,1.67-6.52-1.33-3.34-4.33,3.67-4.17,2,3.17-7.67,1-5-2-2-3,.67,0.25-2-1.46,0,0.46,0.83-2,.33-3.55-.83-2.77-4.33,5.23-4,0-5.33-3.73-1.5-6.23,0-3.5.21-2.17-1.06l1.33-1.27c-2.67,2.54-3.66,3.29-3.66,3.29s-1-1,0,2.34,5.07,9.21.33,4.21-6-5.67-6-5.67-1.17-1.24,0,1.46,8.89,4.21.86,3.71-10.86-2.67-8-.5,0.67-3.5,2.83,2.17,3.83,4.83,2.17,5.67,2,5.31-3.67,0-6.5-5-6.5-5-2.17,1.45,0,2.29-4.5-.49-4.5-0.49c1.5,3.33-1.83,0-1.5,2.17a15.61,15.61,0,0,0,.67,3c-3.83-1-5.33-1.67-2,1.17s5,4.5,5,4.5-3.35.62-3.42,3.31-0.91,3-.91,5v3s2.17-1.83-1.83,2.67-7.5,5-6.67,8.5,0.5,4.17,3.5,2.33l3-1.83,1.83-.83,2.86,0.17s9.64-3.5,2,.5-10.86,5.6-10.86,5.6-4.14,5.56,5.53.9c0,0-5.33,4-2,3.67s9-8.5,9.33-8,1,0.67-2.5,4.17-7.52,4-7.77,6.5,2.61,5.67,2.61,5.67,1-7.5,1.5-2.33,1.5,3.83.5,5.17l-1,1.33a21.94,21.94,0,0,1,4,0c3,0.17,3.5.33,5-1.17s2.33-4,4.17-4.5,2.67-1.17,2.83.5,1.17,1.83,2.67.5,1.19-2.5,1.19-2.5-2.36-5.75,2.31-1.79c0,0,1.67,0,1.83,0a18.85,18.85,0,0,0-.67-3l0.17-3s-2.33-6.83.33-4.67,3.33,3.33,4.17,2.33,0.67,1.17.83-1l0.17-2.17Z" transform="translate(0.5 -13.35)"/><path class="g" d="M219.7,218.34c-0.49.29,2.05-.73,3.18,0.77s3.63,0,.5,2.37-6.12,3.38-8.12,6-1.42,4-2,4.88l-0.6.88s0.88,0.25,2.75-.87,2.89-2.62,3.38-.12,2.87,1,2.87,1-0.5-.52,2.13-3.65S229,222,227,226s-2.62,5.51-2.5,6.63-2.62,3,.38,1.75,3.75,0.25,4.13-.75-0.25-.69,1-1.84,2.38-4.16,2-.78-1.68,2.5,1.47,2.88,3.78,0.91,3.78.91h4.63l1.38-2.16s2.88,0.75,0-1.5-4.25-2.25-2.62-3.87,2,0,.5-2.25-5.25-5-.75-3.5,5,1.5,5.75,1.63,0.75,4.5,1.75-.75,2.13-5.5.88-5.87c-0.89-.27-6.58-3.92-9.75-6l-2.13-1.39s-1.87-1.5,1.25,0,1.13,3.75,3.13,1.5,4.13,2.63,2.13-1.12,3.5-3.5-3.62-5.12-8.79-2.19-8.79-2.19-0.84.82-1.09-.43l-0.25-1.25a2.47,2.47,0,0,0-1.37-1.12c-0.91-.25-3.72-2-2.24.42s-0.85,3-.85,3l0.07,1.88s2,0.5.64,2.25-2.75,1-2.25,2.5a33.36,33.36,0,0,1,.88,3.38,7,7,0,0,1-1.34,3.13Z" transform="translate(0.5 -13.35)"/><path class="h" d="M272.88,125.49c0.5-.5,24.25-15.37,25.25-19.37s0-3.12,0-3.12,2.88-.25-4.12,3.75-17.25,11.5-17.25,11.5-4.5,3.63-7.12,5.88-4.75,2.38-5.5,5.25-1.87,2.5-3.12,2.38-1.75,2-3.12-1.5-1.75-7.37,0-9.62,0.25-.87-5.12-5.75-6.87-3.87-8.25-6a9.84,9.84,0,0,0-2.12-2.62,2.61,2.61,0,0,1,.75.5l-0.28-.07h0c0.53,8.2,2.53,8.2.53,8.2s1.63,3.75-2.5-.87-5.12-5.12-6-5.62-3.5-3.37-2.25-.75,2.25,4.63,2.25,4.63a28.43,28.43,0,0,1,3.75,5c0.88,1.88,2.25.88,0.88,1.88s0.25,2-3.37.13-4.62-2-4.62-2-9.5-1,6,4.76c0,0,4.5.88,3.5,3.25s-9.62,0-11.25,2.38c0,0-3.12,1.25,3.63,1s12.75-1.5,14.5,2.88c0,0,2.38,1.05-1.25.78s-5.75-2.53-7.87-2.53-3.62.25-2.62,1,2.5,0.89,2.63,1.57,1.13,0.32-1.62,0-5.37-.28-6.87.39l-1.5.67a16.32,16.32,0,0,0-1.75,2c-0.25.5,1.13,0,1.13,0s-3.5.57,1.88,0.22,7.75-2.93,8,.11a18.82,18.82,0,0,1,.13,3.67s-1.5,2,1.75,0,5.13-3.5,6.5-3.75,2.75-.62,2.75-0.62,0.5-1.62,1.13,0,3.63-.37.63,1.63-2.75,2.28-5.37,3.64-12.87,7.61-11.37,11.24,0.63,1,2.5.63,1.5-.12,3.25-2.5,0-2.25,2.38-3.25,2.25,0.38,4.13-1.37,11.25-12.37,5.13-4.62-8.25,10-8.25,10-1.37.88-2.12,1.5-7.37.91-2.87,1.52,5.75,0,5.75,0l1.25-1.39,6.88-7.75,1.5-1.75s8.63-10.25,3.38-3-6.75,10.5-6.75,10.5-0.62-.8-2.62,3.66-2.5,6-2.5,6a2.12,2.12,0,0,1,2.63,1.38c1,2-.12,11,2.75,4.13s4.13-7.25,4.25-9.25,8.75-14.62,8.75-14.62,1.38-8.65,1.25-3.57,0,6.57,0,6.57-3.7-2.12-1.91,5.25,3.54,7.5,3.54,7.5l1.25-.5,1-1.87s-1.62-1.25.25-3,0.25-1.37.25-1.37-2.75-11.25.63-2.87,3,5.25,3.38,7.75-3.87,2.5.38,2.5,4.88-1.5,7.38-3,3.88-1.37,3.88-1.37-0.5-.25.75-2-3.75-.62,1.25-1.75,5-3.37,5-3.37a49.11,49.11,0,0,1-1.75-4.87c-0.87-2.87-6.5-4.77-2.62-3.57s6.13,2.07,7.63,2.2,1,1.13,3.71.63,6,0,2-3.62-3.25-5-6.87-5.12-1.87.38-7.12,1.25-3.75-1.12-3.75-1.12,14.75-3.37,17.75-7.5,6.31-4.87,1.84-4,6.91-1.75-3.84,1.38-15.75,6-15.75,6l-3.12.88-2.62.13s2.25-1.62,8.25-5.62,6-2.75,9.25-5.87,8.13-5.12,4-4-1-2.5-4.87.13,0,0.25-3,2.25,0.47,0.64-5.75,3.25-5.25,4.25-8.12,5.75S272.88,125.49,272.88,125.49Z" transform="translate(0.5 -13.35)"/><path class="g" d="M229.25,85c0.25-.75,20.25-18.75,19.5-17.5s-0.5-3.37-4.75-.06-5.25,1.81-7.5,5.31,1.25,0.25,2.25-3.5S241,61.49,244,58.74s8.25-5.25,3.5-4.25-3.5,4.55-4.25-.22l-0.75-4.78s1-2-1.25,0-1.75-2-4.75,3.25,2.83-4.14,2.83-4.14l2.92-3.36s2-.25,3.75-3.5,4.75-8.75,1-5-2.5,2.25-2.75.75a9.91,9.91,0,0,1,.5-3.75c-3.25,1.75,3.75-7.25-3.75,0s-7.5,7.25-8.25,8.75L232,44c0.75-1.5-.81-6.25-5-10.75s-4.22-10.75-4.22-4.5S223.5,33.49,224,36s-3.5.75-1.25,2.75,3-.5,2.25,2,3.5,7-.75,2.5-5-7.5-7.75-10.5-2-5.5-2.75-3a8.27,8.27,0,0,0,0,5.5c0.5,2-4.7,1-.47,4.5s3,0.75,4.22,3.5,2.75,3.5,3.5,5l0.75,1.5,1.25,2.5a20.4,20.4,0,0,1-.5,3.31c-0.25.44,9.5,5.69-.25,0.44S203.5,42.24,203.5,42.24s18.25,15.33,19.25,18.67,6,5.08,1,3.33l-5-1.75a78.24,78.24,0,0,1-8.5-6.94c-3-3.06-6.75-7.56-6.75-7.56-2.5-2-3.25-3.25,0,2.25s6.25,4.5,3.25,5.5l-3,1s-0.75-.25,3,1.75,3.25-1,3.75,2-2.25-1,.5,3,7.83,4.73,6.67,8.24,0.08,5.51-2.42,3.26-7-12.92-11.75-14.08S198.29,60,198.4,58s1.85,6,1.85,6S200,66,205,69.24s5.5,4.25,6.75,5,4.5,2.75,3,3-9-2.52-12.25-5.51S196,67,195.75,68s3,4.5,4.25,5.75,4,2,4.75,3.5-3.25.65-4,2.58-2,.08,2.75,0S214,82.24,216,83l2,0.75s4,1.5,6,2.5S229.25,85,229.25,85Z" transform="translate(0.5 -13.35)"/><path class="c" d="M235.75,107.24c-2.07.17-5.25-1.66-4-4.33s0.5-9.17,4-5.92,2.91,0.65,5,5.16-1,5.84,0,7.09,1.88-2.25,1,1.25l-0.87,3.5Z" transform="translate(0.5 -13.35)"/><path class="h" d="M265.87,94.49c-0.12-1,4.38-13,10.38-14.25a105.45,105.45,0,0,0,11.5-3c4.25-1.25,5.5-1.5,5.5-1.5a57.48,57.48,0,0,1,7.75,0c5.5,0.25,12,1.78,17-.11s6-1.14,7.25-2.14,2.5-4.25,0-3.5,15-10,11-7.75S317,73,318.5,70.74s6.5-4.62,8.25-8.81,0.25-4.69-.5-3.94,1.25-.25-1.5,2a116.65,116.65,0,0,1-14,8.5c-1.75.75,8.75-8.33,10-10.79L322,55.24c-1.25,2.46-1.75-.25-7.25,2.5s-6.75,5.5-7.75,5.5-1-5.75-3.75-1.5a70.16,70.16,0,0,1-6,8c-1.25,1.5-2.75,4-3.25,2s-1.75-2.25,1-5.75,8-9.69,8-9.69c-4.81,5.76-9,3.69-11.5,6.94s-2.75,2.75-3.75,4.5-5,4.5-2.5,2.25,0.5-3.75,1.25-6.75a15.08,15.08,0,0,1,.56-1.69c1.15-3,3.19-6.65,1.94-5.24-1.5,1.69-5.75,14.44-5.5,9.69s1-14.5-.25-8.5-2,7.75-2.5,8.5-2.75-.5-2.75-0.5V63.24a2.37,2.37,0,0,0-3,1.5c-1,2.25.25,3.5-1,2.25s-2.25-1.75-2.25-3.5V61.74a2.19,2.19,0,0,0-1.5-.5c-1,0-.75-1.5-0.75-3v-3s0,1-.25-2.25S269,44.24,269,44.24c0,5.5-4.25,11-4.75,10s0-6.5,0-6.5L264,45.24c0.22,2.5-2,3.5-2.53,5.25s-2.25,0-2.25-2.25S261,34,259.25,46s-1.5,14.5-1.5,14.5c-3.5-4.75-1.5-5-3.5-4.75s-4.5-4.75-2,.25S255,62.74,255,62.74l-3.8-.5c3.8,0.5-.2,5,2.3,5.37s1.25-6.12,7,2.13a19.71,19.71,0,0,1,2.75,16.76l-1,3.73Z" transform="translate(0.5 -13.35)"/><path class="f" d="M251.75,114c3.49,2.93-.25-6.5,2.25-5,1.81,1.08-1-3-2.72-5.3-0.66-.9-1.15-1.54-1.15-1.54s7.36,7.45,8.11,2.89l-4.06-8.94s3.56,7,5.56,6.05,2.5-9.91,2.5-9.91,3,9,3.62,7.75,2.88-5.5,2.88-5.5c2.5,10.25,6.5,9.58,8,7.66s6.75-6.94,7.5-6.05,8,0.11,9.24-5.88,0.26-5.48,2.51-5.73,4.75-4,3.5,2-1.08,3.24.33,5.24,3.92,3.5,2.67,2.75,6.25-1,1.25.75S298,98.83,298,98.83c-4.25,4.66-4.51,6.21-4.51,6.21l-5.74,1.19c5.74-1.19,3.5,2.14,3.5,2.14l-25.38,18.35s-0.62-2.74-4.12-1.24l-3.5,1.5s2.11-4.27.5-5.25A21.43,21.43,0,0,1,251.75,114Z" transform="translate(0.5 -13.35)"/><path class="g" d="M263.92,83.11s-0.92-1.38-3.17,0-1,3.39-3.5,3.39-0.25-3-3.25-2-4.18,1.24-4.59,3.74-5.66,2.5-.41,2.5h6.3c-1.11,5.36-.05,1,0.95,3.75s0.5,5.47,3.25,1.61-3.75-6.11,2.75-3.86,6.75,2.5,9.25,1,0.75-.75,6.5-1.25,7-1,8.25-3.25S291.5,81,291.5,81s4-4.75,0-3-7.25,5.74-8.75,5.12-6.5-2.87-6.5-2.87-3.83,3.26-6.91,6.26S263.92,83.11,263.92,83.11Z" transform="translate(0.5 -13.35)"/><path class="f" d="M258.22,53.79s-2.22-8.55-6-7.05-2.75,1.4-4-.18A18.76,18.76,0,0,1,246,41.74h4.14s3.93-2-.73-5,2.31-12,2.7-10.63S253.75,28,257,33.49s2,7.5,3.25,5.5-0.25-2.25,0-6-3.5-6,.25-3.75,3,2.75,5.37,5.5,4.38,3,6.88,2.25,2-1.75,3.75-.75l1.75,1s0.5,1.75,1.25,4.5,2.75-2,2.75-4.75-2.5-1.5,0-2.75,3.5-4,4.25-3.5,1-3,1.75,1.75-0.5,3.75.75,4.75,0.5,2.5,2.5-2,2-6.25,2-6.25l2.51-.25s2.5,0.69,2.75-2.78-2.5-6,.25-3.47,3.5,2.25,4.75,1.5,5.75-10.25,5-5.75a47.41,47.41,0,0,1-2,7.87s0.29,1.13-2,3.38l-2.27,2.25s1.92,5.25,6.33-1,3.92-9.25,5.42-8.5,2.5,3.75,3.25-.5l0.75-4.25c-1.5,8.5-4.5,10.25-1.5,8.5s11.25-9.5,8.75-7.75,2,0.73-3.25,7.87-11,9.38-12.75,9.88,2-5.25-4.73,1.5S313,44.74,313,44.74s-3.49,2.5-5.5,1.25-7.25,2-10,2a15,15,0,0,0-6.25,1.5l-1,.5s1.25-1-3,1.25,1.47-1.14-1.27,2.55-7,0-7,0-0.25-.66-2.5,1.64-1.5.86-1.5,0.86c-3.25,5.44-2.5,2.94-2.5,2.94-2.25,2-2.76,4.75-6.63,1.75s-2.09-2.18-4.87-4.69Z" transform="translate(0.5 -13.35)"/><path class="g" d="M296,102.91c0.75,0.33,4.29-.58,8.77,0s4.48,2.52,7.23-.2,3-1.42,5-4.69,2.25-2,5.25-5.78,6.25-8.51,6.25-9.13-1.25-.36-5,3.39-5.25,4.74-7,5.24-4.75,1-4.25-.5-2.75.14,0-3.43,2.5-3.85,3-5,11-8.86,1.25-2.36-12.71,7.26-11.73,6,1.21-4.51.72-4.76,5-5.26-.49-0.25l-5.5,5,0.33,5.24Z" transform="translate(0.5 -13.35)"/></svg>